<?xml version="1.0" encoding="UTF-8"?>
<svg id="Layer_1" xmlns="http://www.w3.org/2000/svg" version="1.1" viewBox="0 0 440 65">
  <!-- Generator: Adobe Illustrator 29.6.1, SVG Export Plug-In . SVG Version: 2.1.1 Build 9)  -->
  <defs>
    <style>
      .st0, .st1 {
        fill: #525059;
      }

      .st0, .st2 {
        fill-rule: evenodd;
      }

      .st2, .st3 {
        fill: #ee780a;
      }

      .st4 {
        fill: none;
        stroke: #525059;
        stroke-miterlimit: 10;
      }
    </style>
  </defs>
  <g>
    <path class="st0" d="M153.2,55.3c.7,0,1.2.1,1.6.4.4.3.6.7.6,1.3s0,.5-.3.8c-.2.2-.4.4-.7.5.4,0,.7.3.9.6.2.3.3.6.3,1,0,.6-.2,1-.6,1.3-.4.3-.9.5-1.5.5h-3.1v-.5h.7v-5.1h-.7v-.7h2.8ZM152,58.7v2.3h1.5c.4,0,.7,0,.9-.3.2-.2.3-.5.3-.8s0-.7-.3-.9c-.2-.2-.5-.3-.8-.3h-1.6ZM152,58h1.4c.3,0,.6-.1.7-.3.2-.2.3-.4.3-.7s-.1-.6-.3-.8c-.2-.2-.5-.3-.9-.3h-1.2v2h0ZM195.2,61.3c0,.3,0,.6-.2.9-.1.3-.3.6-.6.8l-.5-.3c.1-.2.2-.4.3-.6,0-.2.1-.5.1-.7v-.7h.9v.7h0ZM198.1,55.8v-.6h2.3v.6h-.7v5.1h.7v.7h-2.3v-.5h.7v-5.1h-.7ZM200.9,61.1h.7v-3.5h-.7v-.7h1.5v.7c.2-.2.4-.4.7-.6.2-.1.5-.2.8-.2.5,0,.9.2,1.2.4.3.3.4.8.4,1.4v2.3h.7v.7h-2.3v-.5h.7v-2.4c0-.4,0-.7-.2-.9-.2-.2-.4-.3-.8-.3s-.5,0-.7.2c-.2.1-.3.3-.5.5v2.8h.7v.7h-2.3v-.5h0ZM209.9,61.1c-.2.2-.3.4-.6.5-.2.1-.5.2-.8.2-.6,0-1-.2-1.4-.6-.3-.4-.5-1-.5-1.6h0c0-.9.2-1.5.5-1.9.3-.5.8-.7,1.4-.7s.5,0,.7.2c.2.1.4.3.5.4v-1.9h-.7v-.7h1.6v6.1h.7v.7h-1.5v-.6h0ZM207.6,59.5c0,.5,0,.9.3,1.1.2.3.5.4.9.4s.5,0,.6-.2c.2-.1.3-.3.4-.5v-2.2c-.1-.2-.3-.4-.4-.5-.2-.1-.4-.2-.6-.2-.4,0-.7.2-.9.5-.2.3-.3.8-.3,1.3h0ZM212.1,61.1h.7v-3.5h-.7v-.7h1.6v4h.7v.7h-2.3v-.5h0ZM213.7,55.7h-.9v-.9h.9v.9h0ZM218.1,61.6c0-.1,0-.2,0-.3,0-.1,0-.2,0-.3-.2.2-.4.4-.6.5-.2.1-.5.2-.8.2-.5,0-.9-.1-1.1-.4-.3-.2-.4-.6-.4-1s.2-.8.5-1c.4-.2.9-.4,1.5-.4h.9v-.5c0-.3,0-.5-.3-.7-.2-.2-.4-.2-.7-.2s-.4,0-.6,0c-.2,0-.3.1-.4.2v.5h-.8v-.9c.2-.2.5-.3.8-.4.3-.1.6-.2,1-.2.5,0,1,.1,1.3.4.3.3.5.7.5,1.2v2.4c0,0,0,.1,0,.2h.3v.6h-1.1ZM216.8,61c.3,0,.5,0,.8-.2.2-.1.4-.3.5-.5v-.8h-.9c-.4,0-.6,0-.8.2-.2.2-.3.4-.3.6s0,.4.2.5c.1.1.3.2.6.2h0ZM158.5,61.7c-.7,0-1.2-.2-1.6-.7-.4-.4-.6-1-.6-1.7v-.2c0-.7.2-1.2.6-1.7.4-.4.9-.7,1.4-.7s1.1.2,1.4.6c.3.4.5.9.5,1.5v.5h-3.1c0,.5.1.8.3,1.1.2.3.5.4.9.4s.5,0,.8-.1c.2,0,.4-.2.6-.3l.3.6c-.2.2-.4.3-.7.4-.3.1-.6.2-1,.2h0ZM158.4,57.5c-.3,0-.5.1-.7.4-.2.2-.3.5-.4.9h0s2.2,0,2.2,0h0c0-.5,0-.7-.3-1-.2-.2-.4-.3-.8-.3h0ZM161,61.1h.7v-3.5h-.7v-.7h1.5v.7c.2-.2.4-.4.7-.6.2-.1.5-.2.8-.2.5,0,.9.2,1.2.4.3.3.4.8.4,1.4v2.3h.7v.7h-2.3v-.5h.7v-2.4c0-.4,0-.7-.2-.9-.2-.2-.4-.3-.8-.3s-.5,0-.7.2c-.2.1-.3.3-.5.5v2.8h.7v.7h-2.3v-.5h0ZM166.9,59.4c0-.8.2-1.4.5-1.8.3-.5.8-.7,1.4-.7s.6,0,.8.2c.2.1.4.3.6.5v-.6h.8v4.7c0,.6-.2,1.1-.5,1.4-.3.4-.8.5-1.5.5s-.5,0-.7,0c-.3,0-.5-.1-.7-.3l.2-.7c.2,0,.3.2.6.2.2,0,.4,0,.6,0,.4,0,.7-.1.8-.3.2-.2.3-.5.3-.9v-.4c-.2.2-.3.3-.6.4-.2.1-.5.2-.7.2-.6,0-1-.2-1.4-.6-.3-.4-.5-1-.5-1.6h0ZM167.7,59.5c0,.5.1.9.3,1.1.2.3.5.4.9.4s.5,0,.7-.2c.2-.1.3-.3.4-.5v-2.2c-.1-.2-.3-.4-.4-.5-.2-.1-.4-.2-.6-.2-.4,0-.7.2-.9.5-.2.3-.3.8-.3,1.3h0ZM175,61.6c0-.1,0-.2,0-.3,0-.1,0-.2,0-.3-.2.2-.4.4-.6.5-.2.1-.5.2-.8.2-.5,0-.9-.1-1.1-.4-.3-.2-.4-.6-.4-1s.2-.8.5-1c.4-.2.9-.4,1.5-.4h.9v-.5c0-.3,0-.5-.3-.7-.2-.2-.4-.2-.7-.2s-.4,0-.6,0c-.2,0-.3.1-.4.2v.5h-.8v-.9c.2-.2.5-.3.8-.4.3-.1.6-.2,1-.2.5,0,1,.1,1.3.4.3.3.5.7.5,1.2v2.3c0,0,0,.1,0,.2,0,0,0,.1,0,.2h.3v.6h-1.1ZM173.6,61c.3,0,.5,0,.8-.2.2-.1.4-.3.5-.5v-.8h-.9c-.3,0-.6,0-.8.2-.2.2-.3.4-.3.6s0,.4.2.5c.1.1.3.2.6.2h0ZM176.7,55.4v-.6h1.6v6.1h.7v.7h-2.3v-.5h.7v-5.6h-.7ZM183,60.9c-.1.3-.3.4-.6.6-.2.1-.5.2-.8.2-.5,0-.9-.2-1.2-.5-.3-.3-.4-.8-.4-1.5v-2.1h-.5v-.7h1.4v2.8c0,.5,0,.8.2,1,.1.2.4.3.7.3s.6,0,.8-.2c.2-.1.3-.3.4-.5v-2.7h-.6v-.7h1.5v4h.5v.7h-1.3v-.7h0ZM185.1,57.5v-.6h1.5v.7c.2-.2.4-.4.6-.6.2-.1.4-.2.7-.2s.1,0,.2,0c0,0,.1,0,.2,0v.8c-.1,0-.6,0-.6,0-.2,0-.4,0-.6.2-.2.1-.3.3-.4.4v2.7h.7v.7h-2.3v-.5h.7v-3.5h-.7ZM192.1,60.9c-.1.3-.3.4-.6.6-.2.1-.5.2-.8.2-.5,0-.9-.2-1.2-.5-.3-.3-.4-.8-.4-1.5v-2.1h-.5v-.7h1.4v2.8c0,.5,0,.8.2,1,.1.2.4.3.7.3s.6,0,.8-.2c.2-.1.3-.3.5-.5v-2.7h-.6v-.7h1.5v4h.5v.7h-1.3v-.7Z"/>
    <polygon class="st2" points="2 25.2 9.1 32.3 18.2 23.2 16.2 21.1 9.1 28.2 6.1 25.2 9.1 22.1 11.1 24.2 13.2 22.1 9.1 18.1 2 25.2"/>
    <polygon class="st2" points="46.6 25.2 39.5 32.3 35.5 28.2 37.5 26.2 39.5 28.2 42.6 25.2 39.5 22.2 32.4 29.3 30.4 27.2 39.5 18.1 46.6 25.2"/>
    <polygon class="st2" points="12.2 15.1 19.2 8 23.3 12 21.3 14 19.2 12 16.2 15.1 23.3 22.2 21.3 24.2 12.2 15.1"/>
    <polygon class="st2" points="36.5 35.3 29.4 42.4 25.3 38.4 27.4 36.4 29.4 38.4 32.4 35.3 25.3 28.2 27.4 26.2 36.5 35.3"/>
    <polygon class="st2" points="20.3 17.1 22.3 19.1 24.3 17.1 31.4 24.2 33.4 22.1 26.4 15.1 29.4 12 32.4 15.1 30.4 17.1 32.4 19.1 36.5 15.1 29.4 7.9 20.3 17.1"/>
    <polygon class="st2" points="24.3 33.3 17.2 26.2 15.2 28.2 22.3 35.3 19.2 38.4 16.2 35.3 18.2 33.3 16.2 31.3 12.2 35.3 19.2 42.4 28.4 33.3 26.4 31.3 24.3 33.3"/>
    <rect class="st3" x="20" y="23.8" width="8.6" height="2.9" transform="translate(-10.7 24.6) rotate(-45)"/>
    <rect class="st3" x="22.2" y="3.8" width="4.3" height="4.3" transform="translate(2.9 18.9) rotate(-45)"/>
    <rect class="st3" x="22.2" y="42.3" width="4.3" height="4.3" transform="translate(-24.3 30.2) rotate(-44.9)"/>
    <path class="st2" d="M79.7,21.9h2.5v3h-3.2c-1.3,0-1.8-.2-2.2-.6-.5-.5-.7-1.3-.8-5.7,0-1.8-.3-2.3-.7-2.7-.5-.5-1-.6-2.1-.6h-4.7v6.6h3v3h-9.3v-3h3V5.9h-3v-3h13.4c1.4,0,2.4.3,3.1.9.9.9,1.2,1.9,1.2,5.2s-.9,4.7-3.4,5h0c2.3.5,3,1.4,3.1,4.6,0,1,0,2.3.2,3.2h0ZM74.5,12.5c.9,0,1.2,0,1.4-.3.3-.3.4-.8.4-3s-.1-2.8-.4-3.1c-.2-.2-.5-.3-1.4-.3h-6v6.6h6Z"/>
    <polygon class="st2" points="84.7 2.9 84.7 5.9 87.7 5.9 87.7 21.9 84.7 21.9 84.7 24.9 102.2 24.9 102.2 17.8 98.9 17.8 98.9 21.9 91 21.9 91 14.9 97 14.9 97 12 91 12 91 5.9 98.7 5.9 98.7 9.5 102 9.5 102 2.9 84.7 2.9"/>
    <path class="st2" d="M104.5,5.9v-3h9.2v3h-3l4.6,15.8h.5l4.6-15.8h-3v-3h8.8v3h-2.4l-5.7,18.1c-.3.9-.6,1.1-1.5,1.1h-2.5c-.9,0-1.2-.2-1.5-1.1l-5.7-18.1h-2.4Z"/>
    <path class="st2" d="M123.8,24.9v-3h2.4l5.7-18.1c.3-.9.6-1.1,1.5-1.1h2.6c.9,0,1.2.2,1.5,1.1l5.7,18.1h2.4v3h-9.1v-3h3l-1.2-3.9c-1.9,0-5.6,0-7.7,0l-1.2,3.9h3v3h-8.8ZM131.6,15.2h6l-2.7-9.3h-.5l-2.8,9.3Z"/>
    <path class="st0" d="M73.2,31v-1.4h6.5v1.4h-2.4v9.2c0,4.1-.4,5.5-1.2,6.3-.6.6-1.4.8-3.2.8h-3.9c-1.7,0-2.5-.2-3.1-.8-.9-.9-1.2-2.2-1.2-6.3v-9.2h-2.4v-1.4h6.5v1.4h-2.7v9.3c0,3.7.3,4.5.9,5.1.3.3.8.5,2.3.5h3.4c1.5,0,1.9-.2,2.3-.5.6-.6.9-1.4.9-5.1v-9.3h-2.7Z"/>
    <path class="st0" d="M94.5,31h-2.7v-1.4h6.4v1.4h-2.3v16.3h-1.6c-.6,0-.8-.1-1-.6l-8.1-15.8h-.3v15.2h2.7v1.1h-6.5v-1.1h2.4v-15.2h-2.4v-1.4h4.2c.6,0,.8.1,1,.6l8,15.6h0v-14.8Z"/>
    <polygon class="st0" points="100.1 29.6 100.1 31 102.7 31 102.7 45.9 100.1 45.9 100.1 47.3 106.7 47.3 106.7 45.9 104.1 45.9 104.1 31 106.7 31 106.7 29.6 100.1 29.6"/>
    <path class="st0" d="M108.4,31v-1.4h6.3v1.4h-2.4l4.6,14.9h.5l4.6-14.9h-2.3v-1.4h6.2v1.4h-2.3l-5.1,15.7c-.2.6-.3.7-1,.7h-.7c-.7,0-.8-.1-1-.7l-5.1-15.7h-2.3Z"/>
    <polygon class="st0" points="127.5 29.6 127.5 31 129.9 31 129.9 45.9 127.5 45.9 127.5 47.3 141 47.3 141 43.5 139.6 43.5 139.6 45.9 131.3 45.9 131.3 38.8 137.5 38.8 137.5 37.4 131.3 37.4 131.3 31 139.6 31 139.6 33.3 141 33.3 141 29.6 127.5 29.6"/>
    <path class="st0" d="M157.3,45.9h2.5v1.4h-2.7c-.5,0-.8,0-.9-.3-.3-.3-.4-.7-.5-4.3,0-2-.3-2.6-.7-3-.4-.4-1-.5-2.1-.5h-5.4v6.6h2.7v1.4h-6.5v-1.4h2.4v-14.9h-2.4v-1.4h9.7c1.3,0,2.1.2,2.6.8.7.7,1.1,1.5,1.1,4s-.9,3.9-2.4,4.3h.4c1.6.4,1.9,1.1,2,4.1,0,2.3.1,2.5.2,3.1h0ZM153.1,37.9c1,0,1.5-.1,1.9-.5.4-.4.8-.9.8-3s-.4-2.6-.8-2.9c-.4-.4-.9-.5-1.9-.5h-5.6v6.9h5.5Z"/>
    <path class="st0" d="M173.9,46.5c-.5.5-1.2.8-2.5.8h-5.7c-1.3,0-1.9-.2-2.5-.7-.6-.7-.9-1.2-.9-4.4h1.4c0,2.7.2,2.9.6,3.3.4.4.8.5,1.7.5h5.3c.9,0,1.4-.2,1.7-.5.4-.4.4-.9.4-2.8s0-2-.4-2.5c-.3-.3-.7-.4-1.9-.6l-5.1-.6c-1.5-.2-2.2-.7-2.6-1.1-.6-.6-.8-1.4-.8-3.6s.3-3.2,1-3.9c.5-.5,1.2-.8,2.5-.8h5.1c1.3,0,1.9.2,2.5.7.7.7.9,1.4.9,4.3h-1.4c0-2.4-.2-2.7-.6-3.1-.4-.3-.8-.5-1.7-.5h-4.5c-.9,0-1.4.2-1.7.5-.5.5-.6,1-.6,2.7s.1,2.3.6,2.7c.3.3.8.4,1.9.5l4.9.5c1.4.1,2.2.4,2.6.9.6.6.8,1.5.8,3.8s-.3,3.2-1,3.9Z"/>
    <polygon class="st0" points="214.1 29.6 214.1 31 216.6 31 212 38.6 211.9 38.6 207.3 31 209.8 31 209.8 29.6 203.5 29.6 203.5 31 205.6 31 211.2 39.8 211.2 45.9 208.5 45.9 208.5 47.3 215.2 47.3 215.2 45.9 212.6 45.9 212.6 39.8 218.1 31 220.2 31 220.2 29.6 214.1 29.6"/>
    <polygon class="st0" points="186.9 29.6 186.9 34.3 188.2 34.3 188.2 30.7 193.4 30.7 193.4 45.9 190.8 45.9 190.8 47.3 197.4 47.3 197.4 45.9 194.8 45.9 194.8 30.7 200 30.7 200 34.3 201.4 34.3 201.4 29.6 186.9 29.6"/>
    <polygon class="st0" points="177.8 29.6 177.8 31 180.4 31 180.4 45.9 177.8 45.9 177.8 47.3 184.4 47.3 184.4 45.9 181.8 45.9 181.8 31 184.4 31 184.4 29.6 177.8 29.6"/>
  </g>
  <g>
    <g>
      <polygon class="st3" points="264.8 30.3 258.9 24.6 275.1 22.3 282.4 7.6 289.6 22.3 305.8 24.6 300 30.3 300 33.1 310.1 23.2 291 20.4 282.4 3 273.8 20.4 254.6 23.2 264.8 33.1 264.8 30.3"/>
      <polygon class="st1" points="295.4 43.6 296.9 52.2 282.4 44.6 267.9 52.2 269.4 43.6 267.3 43.6 265.2 55.8 282.4 46.8 299.5 55.8 297.4 43.6 295.4 43.6"/>
      <g>
        <path class="st1" d="M267.9,33.1v-.8l.9-.2v-5.8l-.9-.2v-.8h3.6c.6,0,1.1,0,1.5.3.4.2.7.4,1,.8.2.3.3.7.3,1.2s-.1.9-.3,1.2c-.2.3-.5.6-.9.8-.4.2-.8.3-1.4.3h-1.6v2.3l.9.2v.8h-3.1ZM270.1,28.8h1.4c.5,0,.9-.1,1.1-.3.2-.2.4-.5.4-.9s-.1-.7-.4-.9c-.2-.2-.6-.3-1.1-.3h-1.4v2.5ZM273,33.1l-1.5-3.6,1.3-.2,1.3,2.8h.6v1h-1.7Z"/>
        <path class="st1" d="M275.4,33.1v-.8l.9-.2v-5.8l-.9-.2v-.8h6v2h-1.1v-1h-2.7v2.2h2.7v1h-2.7v2.5h2.8v-1h1.1v2h-6.1Z"/>
        <path class="st1" d="M285.6,33.1l-2.6-6.9h-.7v-.9h2.8v.8h-.7c0,.1,1.6,4.9,1.6,4.9v.5h.2l.2-.5,1.7-4.8h-.8v-.9h2.8v.8h-.7c0,0-2.5,7-2.5,7h-1.3Z"/>
        <path class="st1" d="M289.3,33.1v-.8h.6c0,0,2.6-7,2.6-7h1.3l2.6,6.9h.6v.9h-2.5v-.8h.6c0-.1-.4-1.3-.4-1.3h-2.9l-.4,1.2h.6v.9h-2.5ZM292,29.9h2.2l-1-2.9v-.2h-.1v.2c0,0-1.1,2.9-1.1,2.9Z"/>
      </g>
      <g>
        <path class="st3" d="M268,42.4v-.8l.9-.2v-5.8l-.9-.2v-.8h3.6c.6,0,1.1,0,1.5.3.4.2.7.4,1,.8.2.3.3.7.3,1.2s-.1.9-.3,1.2c-.2.3-.5.6-.9.8-.4.2-.8.3-1.4.3h-1.6v2.3l.9.2v.8h-3.1ZM270.2,38.1h1.4c.5,0,.9-.1,1.1-.3.2-.2.4-.5.4-.9s-.1-.7-.4-.9c-.2-.2-.6-.3-1.1-.3h-1.4v2.5ZM273.1,42.4l-1.5-3.6,1.3-.2,1.3,2.8h.6v1h-1.7Z"/>
        <path class="st3" d="M275.5,42.4v-.8h.6c0,0,2.6-7,2.6-7h1.3l2.6,6.9h.6v.9h-2.5v-.8h.6c0-.1-.4-1.3-.4-1.3h-2.9l-.4,1.2h.6v.9h-2.5ZM278.2,39.2h2.2l-1-2.9v-.2h-.1v.2c0,0-1.1,2.9-1.1,2.9Z"/>
        <path class="st3" d="M287,42.5c-.8,0-1.4-.2-2-.5-.5-.3-1-.8-1.3-1.4-.3-.6-.4-1.3-.4-2.1v-.2c0-.8.1-1.4.4-2,.3-.6.7-1.1,1.2-1.4.5-.3,1.2-.5,1.9-.5s1,0,1.4.2c.4.2.8.4,1.2.7v1.8h-1v-1.2c-.3,0-.4-.2-.5-.2-.1,0-.3-.1-.5-.1-.2,0-.4,0-.6,0-.5,0-.9.1-1.2.4-.3.2-.6.6-.8,1-.2.4-.3.9-.3,1.5v.2c0,.6,0,1.1.3,1.5.2.4.5.8.8,1,.3.2.8.3,1.3.3s.5,0,.7,0c.2,0,.4-.1.6-.2v-1.1h1.2v1.8c-.3.2-.7.4-1.1.5s-.9.2-1.4.2Z"/>
        <path class="st3" d="M290.4,42.4v-.8l.9-.2v-5.8l-.9-.2v-.8h6v2h-1.1v-1h-2.7v2.2h2.7v1h-2.7v2.5h2.8v-1h1.1v2h-6.1Z"/>
      </g>
    </g>
    <g>
      <g>
        <path class="st1" d="M315.9,26.2v-.9l1-.2v-6.5l-1-.2v-.9h4c.7,0,1.2.1,1.7.3.5.2.8.5,1.1.9.2.4.4.8.4,1.4s-.1,1-.4,1.3c-.2.4-.6.7-1,.9-.4.2-.9.3-1.5.3h-1.8v2.5l1,.2v.9h-3.4ZM318.4,21.4h1.5c.6,0,1-.1,1.3-.3.3-.2.4-.6.4-1s-.1-.8-.4-1c-.3-.3-.7-.4-1.2-.4h-1.6v2.7ZM321.6,26.2l-1.7-4,1.4-.2,1.4,3.2h.7v1.1h-1.8Z"/>
        <path class="st1" d="M324.3,26.2v-.9l1-.2v-6.5l-1-.2v-.9h6.6v2.2h-1.2v-1.1h-3v2.5h3.1v1.2h-3.1v2.8h3.1v-1.1h1.3v2.3h-6.8Z"/>
        <path class="st1" d="M335.6,26.2l-2.9-7.7h-.7v-1h3.2v.9h-.8c0,.1,1.8,5.4,1.8,5.4l.2.6h0l.2-.6,1.8-5.3h-.9v-1h3.1v.9h-.8c0,0-2.7,7.8-2.7,7.8h-1.5Z"/>
        <path class="st1" d="M339.7,26.2v-.9h.6c0,0,2.9-7.8,2.9-7.8h1.5l2.9,7.7h.6v1h-2.8v-.9h.6c0-.1-.5-1.5-.5-1.5h-3.2l-.5,1.4h.6v1h-2.8ZM342.7,22.6h2.5l-1.1-3.2v-.2h-.1v.2c0,0-1.2,3.2-1.2,3.2Z"/>
        <path class="st1" d="M351.8,26.2v-.9h.6c0,0,2.9-7.8,2.9-7.8h1.5l2.9,7.7h.6v1h-2.8v-.9h.6c0-.1-.5-1.5-.5-1.5h-3.2l-.5,1.4h.6v1h-2.8ZM354.8,22.6h2.5l-1.1-3.2v-.2h-.1v.2c0,0-1.2,3.2-1.2,3.2Z"/>
        <path class="st1" d="M363.9,26.3c-.6,0-1.1-.1-1.6-.4-.4-.3-.8-.7-1-1.1-.2-.5-.4-1.1-.4-1.7v-.2c0-.6.1-1.2.4-1.7.2-.5.6-.9,1-1.2s1-.4,1.6-.4,1,0,1.4.3c.4.2.7.4,1,.7v1.7s-1.1,0-1.1,0l-.2-1.1c-.1-.1-.3-.2-.4-.3-.2,0-.4-.1-.6-.1-.3,0-.6,0-.8.3-.2.2-.4.4-.5.7-.1.3-.2.7-.2,1.1v.2c0,.5,0,.8.2,1.1.1.3.3.5.5.7.2.2.5.2.8.2s.6,0,.8-.3c.2-.2.4-.4.4-.8h1.3c0,.5-.2.8-.4,1.2-.2.3-.5.6-.9.8-.4.2-.8.3-1.4.3Z"/>
        <path class="st1" d="M369.5,26.3c-.7,0-1.2-.2-1.5-.5-.4-.3-.6-.8-.6-1.4s.1-.8.3-1.1c.2-.3.6-.5,1-.7.4-.2,1-.3,1.6-.3h1v-.5c0-.3-.1-.6-.3-.8-.2-.2-.5-.3-.9-.3s-.4,0-.6,0c-.2,0-.3.1-.5.2v.9h-1.2v-1.6c.3-.2.7-.4,1.1-.5.4-.1.8-.2,1.3-.2.8,0,1.5.2,1.9.6.5.4.7.9.7,1.7v2.9c0,0,0,.2,0,.3,0,0,0,.2,0,.2h.7v1h-2c0-.1,0-.3-.1-.4s0-.3,0-.4c-.2.3-.5.5-.8.7-.3.2-.6.3-1,.3ZM369.9,25.1c.3,0,.6,0,.9-.2.3-.1.5-.3.6-.5v-1.1h-1c-.5,0-.8.1-1,.3s-.3.5-.3.7,0,.4.2.6c.2.1.4.2.7.2Z"/>
        <path class="st1" d="M376.8,26.3c-.5,0-1-.1-1.3-.4-.4-.3-.7-.6-.9-1.1-.2-.5-.3-1-.3-1.7h0c0-.8,0-1.4.3-1.9.2-.5.5-.9.9-1.2.4-.3.8-.4,1.3-.4s.7,0,1,.2c.3.1.5.3.7.6v-2.5l-1-.2v-.9h2.5v8.2l.9.2v.9h-2.2v-.8c-.3.3-.6.5-.9.7s-.6.2-1,.2ZM377.2,25.1c.3,0,.5,0,.7-.2.2-.1.4-.3.5-.5v-2.9c-.1-.2-.3-.4-.5-.5-.2-.1-.5-.2-.7-.2s-.6,0-.8.3c-.2.2-.4.5-.5.8,0,.3-.1.7-.1,1.2h0c0,.7.1,1.2.3,1.6.2.4.6.5,1.1.5Z"/>
        <path class="st1" d="M384.6,26.3c-.6,0-1.1-.1-1.6-.4-.5-.3-.8-.7-1.1-1.1-.2-.5-.4-1-.4-1.7v-.3c0-.6.1-1.2.4-1.7.2-.5.6-.9,1-1.2s.9-.4,1.5-.4,1.1.1,1.5.4c.4.2.7.6.9,1,.2.4.3,1,.3,1.6v.9h-4c0,.4,0,.7.2.9.1.3.3.5.5.6.2.2.5.2.9.2s.7,0,1-.1.6-.2.8-.4l.5.9c-.3.2-.6.4-1,.5s-.9.2-1.4.2ZM383.1,22.3h2.5v-.2c0-.3,0-.5-.1-.7,0-.2-.2-.4-.4-.5-.2-.1-.4-.2-.7-.2s-.5,0-.6.2c-.2.1-.3.3-.4.6-.1.2-.2.5-.2.8h0Z"/>
        <path class="st1" d="M387.9,26.2v-.9l.9-.2v-4.3l-1-.2v-.9h2.3v.9c.3-.3.5-.5.9-.7.3-.2.7-.3,1.1-.3s.8,0,1.1.3c.3.2.5.5.7.9.2-.4.5-.6.8-.8.3-.2.7-.3,1.1-.3.7,0,1.2.2,1.5.7.4.4.6,1.1.6,2v2.8l.9.2v.9h-3.3v-.9l.9-.2v-2.8c0-.5,0-.9-.3-1.1-.2-.2-.5-.3-.8-.3s-.6.1-.8.3c-.2.2-.4.5-.4.8v3.2l.8.2v.9h-3.1v-.9l.8-.2v-2.8c0-.5,0-.9-.3-1.1-.2-.2-.5-.3-.8-.3s-.5,0-.7.2c-.2.1-.4.3-.5.5v3.6l.8.2v.9h-3.3Z"/>
        <path class="st1" d="M400.7,28.8c-.1,0-.3,0-.4,0-.2,0-.3,0-.4,0l.2-1.1c0,0,.2,0,.3,0,.1,0,.2,0,.2,0,.3,0,.5,0,.6-.2.2-.2.3-.4.4-.7l.2-.5-2.2-5.4h-.8v-1h3.1v.9h-.8c0,.1,1.1,3.1,1.1,3.1l.2.6h0l1.3-3.6h-.8v-1h3v.9h-.7c0,.1-2.5,6.5-2.5,6.5-.1.3-.3.6-.4.8-.2.2-.4.4-.7.6-.3.1-.6.2-1,.2Z"/>
        <path class="st1" d="M409.6,26.2v-.9l.9-.2v-4.3h-1v-1.1h1v-.8c0-.7.2-1.3.6-1.6.4-.4.9-.6,1.6-.6s.3,0,.5,0c.2,0,.4,0,.5,0v1.1c-.2,0-.3,0-.5,0-.1,0-.2,0-.4,0-.3,0-.6,0-.7.3-.2.2-.2.4-.2.8v.8h1.4v1.1h-1.4v4.3l1.1.2v.9h-3.5Z"/>
        <path class="st1" d="M417.2,26.3c-.6,0-1.2-.1-1.6-.4-.4-.3-.8-.7-1-1.2-.2-.5-.4-1.1-.4-1.7h0c0-.8.1-1.3.4-1.8.2-.5.6-.9,1-1.2.4-.3,1-.4,1.6-.4s1.2.1,1.6.4c.4.3.8.7,1,1.2.2.5.4,1.1.4,1.7h0c0,.8-.1,1.3-.4,1.8-.2.5-.6.9-1,1.2-.4.3-1,.4-1.6.4ZM417.2,25.2c.3,0,.6,0,.8-.3.2-.2.4-.4.5-.8.1-.3.2-.7.2-1.1h0c0-.5,0-.9-.2-1.2-.1-.3-.3-.6-.5-.8-.2-.2-.5-.3-.8-.3s-.6,0-.8.3c-.2.2-.4.4-.5.8-.1.3-.2.7-.2,1.1h0c0,.5,0,.9.2,1.2.1.3.3.6.5.8.2.2.5.3.8.3Z"/>
        <path class="st1" d="M421.1,26.2v-.9l.9-.2v-4.3l-.9-.2v-.9h2.3v.8c0,0,0,.1,0,.1.2-.3.4-.6.6-.8.2-.2.5-.3.9-.3s.2,0,.4,0c.1,0,.2,0,.3,0l-.2,1.4h-.8c-.3,0-.5,0-.7.1-.2.1-.3.3-.4.5v3.4l.9.2v.9h-3.3Z"/>
      </g>
      <g>
        <path class="st1" d="M320,39.8c-.9,0-1.6-.2-2.2-.5-.6-.4-1.1-.9-1.4-1.5-.3-.7-.5-1.4-.5-2.3v-.2c0-.9.2-1.6.5-2.3.3-.7.8-1.2,1.4-1.6.6-.4,1.3-.6,2.1-.6s1.1,0,1.6.3c.5.2.9.4,1.3.7v2h-1.1l-.2-1.3c-.1,0-.3-.2-.4-.2-.2,0-.3-.1-.5-.2-.2,0-.4,0-.6,0-.5,0-1,.1-1.3.4-.4.3-.7.6-.9,1.1-.2.5-.3,1-.3,1.7v.2c0,.7.1,1.2.3,1.7.2.5.5.8.9,1.1.4.3.9.4,1.4.4s.5,0,.8,0c.3,0,.5-.1.7-.2l.2-1.2h1.1v2c-.3.2-.7.4-1.2.5s-1,.2-1.6.2Z"/>
        <path class="st1" d="M326.8,39.8c-.6,0-1.2-.1-1.6-.4-.4-.3-.8-.7-1-1.2-.2-.5-.4-1.1-.4-1.7h0c0-.8.1-1.3.4-1.8.2-.5.6-.9,1-1.2.4-.3,1-.4,1.6-.4s1.2.1,1.6.4c.4.3.8.7,1,1.2.2.5.4,1.1.4,1.7h0c0,.8-.1,1.3-.4,1.8-.2.5-.6.9-1,1.2-.4.3-1,.4-1.6.4ZM326.8,38.6c.3,0,.6,0,.8-.3.2-.2.4-.4.5-.8.1-.3.2-.7.2-1.1h0c0-.5,0-.9-.2-1.2-.1-.3-.3-.6-.5-.8-.2-.2-.5-.3-.8-.3s-.6,0-.8.3c-.2.2-.4.4-.5.8-.1.3-.2.7-.2,1.1h0c0,.5,0,.9.2,1.2.1.3.3.6.5.8.2.2.5.3.8.3Z"/>
        <path class="st1" d="M330.7,39.7v-.9l.9-.2v-4.3l-.9-.2v-.9h2.3v.8c0,0,0,.1,0,.1.2-.3.4-.6.6-.8.2-.2.5-.3.9-.3s.2,0,.4,0c.1,0,.2,0,.3,0l-.2,1.4h-.8c-.3,0-.5,0-.7.1-.2.1-.3.3-.4.5v3.4l.9.2v.9h-3.3Z"/>
        <path class="st1" d="M335.8,42.2v-.9l.9-.2v-6.8l-1-.2v-.9h2.3v.8c.3-.3.5-.5.8-.7.3-.2.6-.2,1-.2s1,.1,1.4.4c.4.3.7.7.9,1.2.2.5.3,1.1.3,1.8h0c0,.8,0,1.3-.3,1.8-.2.5-.5.8-.9,1.1-.4.3-.8.4-1.4.4s-.7,0-1-.2c-.3-.1-.5-.3-.7-.6v2l.9.2v.9h-3.3ZM339.4,38.6c.5,0,.9-.2,1.1-.5.2-.4.4-.8.4-1.4h0c0-.6,0-1-.2-1.3-.1-.3-.3-.6-.5-.8-.2-.2-.5-.3-.8-.3s-.5,0-.7.2c-.2.1-.4.3-.5.5v3c.1.2.3.4.5.5.2.1.5.2.7.2Z"/>
        <path class="st1" d="M346.4,39.8c-.6,0-1.2-.1-1.6-.4-.4-.3-.8-.7-1-1.2-.2-.5-.4-1.1-.4-1.7h0c0-.8.1-1.3.4-1.8.2-.5.6-.9,1-1.2.4-.3,1-.4,1.6-.4s1.2.1,1.6.4c.4.3.8.7,1,1.2.2.5.4,1.1.4,1.7h0c0,.8-.1,1.3-.4,1.8-.2.5-.6.9-1,1.2-.4.3-1,.4-1.6.4ZM346.4,38.6c.3,0,.6,0,.8-.3.2-.2.4-.4.5-.8.1-.3.2-.7.2-1.1h0c0-.5,0-.9-.2-1.2-.1-.3-.3-.6-.5-.8-.2-.2-.5-.3-.8-.3s-.6,0-.8.3c-.2.2-.4.4-.5.8-.1.3-.2.7-.2,1.1h0c0,.5,0,.9.2,1.2.1.3.3.6.5.8.2.2.5.3.8.3Z"/>
        <path class="st1" d="M350.2,39.7v-.9l.9-.2v-4.3l-.9-.2v-.9h2.3v.8c0,0,0,.1,0,.1.2-.3.4-.6.6-.8.2-.2.5-.3.9-.3s.2,0,.4,0c.1,0,.2,0,.3,0l-.2,1.4h-.8c-.3,0-.5,0-.7.1-.2.1-.3.3-.4.5v3.4l.9.2v.9h-3.3Z"/>
        <path class="st1" d="M357.5,39.8c-.7,0-1.2-.2-1.5-.5-.4-.3-.6-.8-.6-1.4s.1-.8.3-1.1.6-.5,1-.7c.4-.2,1-.3,1.6-.3h1v-.5c0-.3-.1-.6-.3-.8-.2-.2-.5-.3-.9-.3s-.4,0-.6,0c-.2,0-.3.1-.5.2v.9h-1.2v-1.6c.3-.2.7-.4,1.1-.5.4-.1.8-.2,1.3-.2.8,0,1.5.2,1.9.6.5.4.7.9.7,1.7v2.9c0,0,0,.2,0,.3,0,0,0,.2,0,.2h.7v1h-2c0-.1,0-.3-.1-.4s0-.3,0-.4c-.2.3-.5.5-.8.7-.3.2-.6.3-1,.3ZM357.8,38.6c.3,0,.6,0,.9-.2.3-.1.5-.3.6-.5v-1.1h-1c-.5,0-.8.1-1,.3s-.3.5-.3.7,0,.4.2.6c.2.1.4.2.7.2Z"/>
        <path class="st1" d="M364.5,39.8c-.6,0-1-.2-1.3-.5-.3-.3-.5-.8-.5-1.5v-3.6h-.9v-1.1h.9v-1.6h1.5v1.6h1.3v1.1h-1.3v3.6c0,.3,0,.5.2.6.1.1.3.2.5.2s.2,0,.4,0c.1,0,.2,0,.3,0l.2,1.1c-.2,0-.4,0-.6.1-.2,0-.4,0-.6,0Z"/>
        <path class="st1" d="M369.4,39.8c-.6,0-1.1-.1-1.6-.4-.5-.3-.8-.7-1.1-1.1-.2-.5-.4-1-.4-1.7v-.3c0-.6.1-1.2.4-1.7.2-.5.6-.9,1-1.2s.9-.4,1.5-.4,1.1.1,1.5.4c.4.2.7.6.9,1,.2.4.3,1,.3,1.6v.9h-4c0,.4,0,.7.2.9.1.3.3.5.5.6.2.2.5.2.9.2s.7,0,1-.1.6-.2.8-.4l.5.9c-.3.2-.6.4-1,.5s-.9.2-1.4.2ZM367.9,35.8h2.5v-.2c0-.3,0-.5-.1-.7,0-.2-.2-.4-.4-.5-.2-.1-.4-.2-.7-.2s-.5,0-.6.2c-.2.1-.3.3-.4.6-.1.2-.2.5-.2.8h0Z"/>
        <path class="st1" d="M375.7,39.7v-.9l1-.2v-6.5l-1-.2v-.9h6.6v2.2h-1.2v-1.1h-3v2.5h3.1v1.2h-3.1v2.8h3.1v-1.1h1.3v2.3h-6.8Z"/>
        <path class="st1" d="M383.4,39.7v-.9h.8c0-.1,1.9-2.3,1.9-2.3l-1.8-2.2h-.7v-1h2.9v.9h-.6c0,0,1.1,1.5,1.1,1.5l1.1-1.4h-.6v-1h2.8v.9h-.7c0,.1-1.7,2.2-1.7,2.2l1.9,2.3h.7v1h-3.1v-.9h.7c0,0-1.2-1.5-1.2-1.5l-1.1,1.4h.6v1h-3.1Z"/>
        <path class="st1" d="M394.1,39.8c-.6,0-1.1-.1-1.6-.4-.4-.3-.8-.7-1-1.1-.2-.5-.4-1.1-.4-1.7v-.2c0-.6.1-1.2.4-1.7.2-.5.6-.9,1-1.2s1-.4,1.6-.4,1,0,1.4.3c.4.2.7.4,1,.7v1.7s-1.1,0-1.1,0l-.2-1.1c-.1-.1-.3-.2-.4-.3-.2,0-.4-.1-.6-.1-.3,0-.6,0-.8.3-.2.2-.4.4-.5.7-.1.3-.2.7-.2,1.1v.2c0,.5,0,.8.2,1.1.1.3.3.5.5.7.2.2.5.2.8.2s.6,0,.8-.3c.2-.2.4-.4.4-.8h1.3c0,.5-.2.8-.4,1.2-.2.3-.5.6-.9.8-.4.2-.8.3-1.4.3Z"/>
        <path class="st1" d="M400.6,39.8c-.6,0-1.1-.1-1.6-.4-.5-.3-.8-.7-1.1-1.1-.2-.5-.4-1-.4-1.7v-.3c0-.6.1-1.2.4-1.7.2-.5.6-.9,1-1.2s.9-.4,1.5-.4,1.1.1,1.5.4c.4.2.7.6.9,1,.2.4.3,1,.3,1.6v.9h-4c0,.4,0,.7.2.9.1.3.3.5.5.6.2.2.5.2.9.2s.7,0,1-.1.6-.2.8-.4l.5.9c-.3.2-.6.4-1,.5s-.9.2-1.4.2ZM399.2,35.8h2.5v-.2c0-.3,0-.5-.1-.7,0-.2-.2-.4-.4-.5-.2-.1-.4-.2-.7-.2s-.5,0-.6.2c-.2.1-.3.3-.4.6-.1.2-.2.5-.2.8h0Z"/>
        <path class="st1" d="M403.9,39.7v-.9l.9-.2v-7.1l-1-.2v-.9h2.5v8.2l.9.2v.9h-3.3Z"/>
        <path class="st1" d="M407.8,39.7v-.9l.9-.2v-7.1l-1-.2v-.9h2.5v8.2l.9.2v.9h-3.3Z"/>
        <path class="st1" d="M414.7,39.8c-.6,0-1.1-.1-1.6-.4-.5-.3-.8-.7-1.1-1.1-.2-.5-.4-1-.4-1.7v-.3c0-.6.1-1.2.4-1.7.2-.5.6-.9,1-1.2s.9-.4,1.5-.4,1.1.1,1.5.4c.4.2.7.6.9,1,.2.4.3,1,.3,1.6v.9h-4c0,.4,0,.7.2.9.1.3.3.5.5.6.2.2.5.2.9.2s.7,0,1-.1.6-.2.8-.4l.5.9c-.3.2-.6.4-1,.5s-.9.2-1.4.2ZM413.3,35.8h2.5v-.2c0-.3,0-.5-.1-.7,0-.2-.2-.4-.4-.5-.2-.1-.4-.2-.7-.2s-.5,0-.6.2c-.2.1-.3.3-.4.6-.1.2-.2.5-.2.8h0Z"/>
        <path class="st1" d="M418,39.7v-.9l.9-.2v-4.3l-.9-.2v-.9h2.3v.9c.3-.3.6-.6.9-.8.3-.2.7-.3,1.1-.3.7,0,1.2.2,1.6.6.4.4.6,1,.6,1.9v3l.9.2v.9h-3.3v-.9l.8-.2v-3c0-.5,0-.8-.3-1-.2-.2-.5-.3-.9-.3s-.5,0-.8.2c-.2.1-.4.3-.5.5v3.6l.8.2v.9h-3.2Z"/>
        <path class="st1" d="M428.9,39.8c-.6,0-1.1-.1-1.6-.4-.4-.3-.8-.7-1-1.1-.2-.5-.4-1.1-.4-1.7v-.2c0-.6.1-1.2.4-1.7.2-.5.6-.9,1-1.2s1-.4,1.6-.4,1,0,1.4.3c.4.2.7.4,1,.7v1.7s-1.1,0-1.1,0l-.2-1.1c-.1-.1-.3-.2-.4-.3-.2,0-.4-.1-.6-.1-.3,0-.6,0-.8.3-.2.2-.4.4-.5.7-.1.3-.2.7-.2,1.1v.2c0,.5,0,.8.2,1.1.1.3.3.5.5.7.2.2.5.2.8.2s.6,0,.8-.3c.2-.2.4-.4.4-.8h1.3c0,.5-.2.8-.4,1.2-.2.3-.5.6-.9.8-.4.2-.8.3-1.4.3Z"/>
        <path class="st1" d="M435.5,39.8c-.6,0-1.1-.1-1.6-.4-.5-.3-.8-.7-1.1-1.1-.2-.5-.4-1-.4-1.7v-.3c0-.6.1-1.2.4-1.7.2-.5.6-.9,1-1.2s.9-.4,1.5-.4,1.1.1,1.5.4c.4.2.7.6.9,1,.2.4.3,1,.3,1.6v.9h-4c0,.4,0,.7.2.9.1.3.3.5.5.6.2.2.5.2.9.2s.7,0,1-.1.6-.2.8-.4l.5.9c-.3.2-.6.4-1,.5s-.9.2-1.4.2ZM434,35.8h2.5v-.2c0-.3,0-.5-.1-.7,0-.2-.2-.4-.4-.5-.2-.1-.4-.2-.7-.2s-.5,0-.6.2c-.2.1-.3.3-.4.6-.1.2-.2.5-.2.8h0Z"/>
      </g>
    </g>
  </g>
  <line class="st4" x1="238.9" y1="1.5" x2="238.9" y2="61.9"/>
</svg>