<?xml version="1.0" encoding="UTF-8"?> <svg xmlns="http://www.w3.org/2000/svg" id="Layer_2" data-name="Layer 2" viewBox="0 0 552.99 281.44"><defs><style> .cls-1 { fill: #f60f17; } </style></defs><g id="Layer_1-2" data-name="Layer 1"><g><g><circle cx="371.79" cy="90.99" r=".69"></circle><circle cx="379.1" cy="90.99" r=".68"></circle><circle cx="335.23" cy="90.99" r=".69"></circle><circle cx="364.47" cy="91" r=".68"></circle><circle cx="327.92" cy="90.99" r=".68"></circle><circle cx="357.16" cy="90.99" r=".69"></circle><circle cx="349.85" cy="90.98" r=".68"></circle><circle cx="342.54" cy="90.98" r=".68"></circle><circle cx="507.05" cy="90.98" r=".69"></circle><circle cx="499.74" cy="90.99" r=".68"></circle><circle cx="543.61" cy="90.98" r=".68"></circle><circle cx="528.99" cy="90.99" r=".69"></circle><circle cx="550.92" cy="90.99" r=".69"></circle><circle cx="536.3" cy="90.98" r=".69"></circle><circle cx="521.68" cy="90.99" r=".68"></circle><circle cx="514.37" cy="90.99" r=".69"></circle><path d="M483.39,88.33v4.35c1.13.7.26,1.98.7,3.1l.47.37c.12.1-.12.68-.36.68l-9.19.02c-.26,0-.73-.16-.72-.33.09-1.03.7-.18.58-1.79-.07-.89.04-1.5.62-2.21l-.06-3.96c0-.27-.66-.95-.51-1.19.67-.23,1.55-.28,2.21.04.28.14-.51.81-.53,1.07-.05,1-.06,2.86-.05,4.06,0,.31.69.84,1.02.84l3.61.03c1.74.02.95-3.72,1-4.96-.02-.26-.83-.91-.4-1.08,1.39-.54,2.54.09,2.21.39l-.62.57ZM477.19,94.47v1.34s4.47.01,4.47.01v-1.34s-4.47-.01-4.47-.01Z"></path><path d="M482.3,108.18c0,.22-.43.69-.68.69l-4.99-.09.04-5.79,5.57.03.05,5.16ZM477.8,106.08l-.08,1.67h3.5s0-3.67,0-3.67l-3.51-.02.08,1.81c.3-.9.68-1.59,1.58-1.62s1.61.63,1.62,1.59-.66,1.73-1.61,1.69c-.79-.03-1.28-.68-1.58-1.46Z"></path><path d="M482.23,98.12h-5.62s-.15,1.65-.15,1.65c-.02.19-.82.15-.84-.03l-.11-.77-.1-.69c-.05-.35-.68.17-1.14-.69-.08-.15.34-.54.55-.54h9.15c.23,0,.58.18.63.33.06.19-.19.64-.38.67-.29.05-.79.05-.8.23l-.04.94c0,.19-.25.62-.41.74-.18.14-.65-.31-.66-.55l-.07-1.3Z"></path><path d="M403.42,88.49c-.7,4.93.7,4.38.54,5.75-.06.52-.13,1.21.09,1.45l.42.45c.12.13-.09.7-.27.7h-9.61c-.16-.02-.43-.47-.36-.55l.45-.55c.61-.75-.41-2.14.73-3.11.04-1.2.06-3.07-.07-4.21-.03-.26-.76-.93-.37-1.07.62-.24,1.44-.23,2.1.04.24.1-.25.79-.5,1.01l-.05,3.93c0,.79.9,1.06,1.48,1.06h2.87c.58-.01,1.38-.28,1.38-1.06,0-1.12-.02-2.89-.07-3.83-.01-.23-.65-.88-.5-1.07.62-.31,1.43-.3,2.16-.07.28.09-.37.84-.41,1.13ZM397.14,94.47v1.33s4.51.02,4.51.02v-1.33s-4.51-.02-4.51-.02Z"></path><path d="M402.21,108.78l-5.58.04-.04-5.78,4.94-.09c.28,0,.73.46.72.75l-.04,5.08ZM401.02,105.63l.13-1.57-3.53.04.09,1.48c.46-.81.96-1.32,1.73-1.29.85.03,1.22.61,1.58,1.36ZM401.16,107.76l-.13-1.74c-.36.87-.69,1.5-1.6,1.53-.8.02-1.34-.58-1.77-1.49l-.03,1.7h3.52Z"></path><path d="M402.19,98.14l-5.62-.02-.1,1.47c-.01.18-.59.44-.73.32-.18-.15-.3-.57-.32-.89l-.04-.73c-.02-.35-1,.07-1.17-.7-.04-.19.35-.53.59-.53h9.03c.21,0,.61.16.68.33.08.2-.24.66-.47.7-.19.03-.64.05-.66.19l-.09.71-.1.78c-.02.18-.83.18-.84,0l-.16-1.64Z"></path><path d="M481.56,77.79c0,1.17-.95,2.12-2.12,2.12s-2.12-.95-2.12-2.12.95-2.12,2.12-2.12,2.12.95,2.12,2.12ZM480.38,77.62c.03-.48-.64-1.05-.98-.94-.27.09-.71.43-.91.69-.18.22.05.78.3,1.16.16.26.87.4,1.14.24.22-.13.42-.62.46-1.16Z"></path><path d="M401.51,77.79c0,1.17-.95,2.12-2.12,2.12s-2.12-.95-2.12-2.12.95-2.12,2.12-2.12,2.12.95,2.12,2.12ZM398.96,78.78c.49.22,1.18-.1,1.37-.55s-.04-.97-.45-1.35c-.24-.23-.96-.13-1.24.21-.39.47-.24,1.44.32,1.7Z"></path><circle cx="479.47" cy="77.77" r=".69"></circle><circle cx="399.32" cy="77.77" r=".69"></circle><g><path d="M403.18,42.26c-.82.19-2.39.18-3.15.02-.16-.04-.32-.67-.17-.74l.68-.36c-.56-.67-1.03-1.76-.64-2.77l1.08-2.81c.06-.15.31-.4.41-.48.14-.1.64.11.71.29l1.16,3c.39,1.01-.01,2.05-.66,2.79l.59.25c.15.06.15.79-.02.83ZM401.59,37.3c-.65.85-1.19,2.72,0,3.19.39.15,1.27-1.46,0-3.19Z"></path><path d="M478.86,42.25c-.58.11-3.47.48-3.41-.41.01-.23.41-.47.76-.64-.56-.66-1.05-1.75-.66-2.76l1.15-2.97c.06-.15.39-.38.52-.4s.49.21.55.35l1.16,2.98c.41,1.04-.05,2.06-.64,2.78l.56.25c.15.07.16.8,0,.83ZM477.25,40.54c1.19-.83.7-2.02,0-3.31l-.66,1.48c-.28.62.08,1.44.65,1.84Z"></path><path d="M333.11,91.23c1.05,0-.1,1.13,1.24,2.42.23.23.54.69.8.73.34.05.72-.42.98-.73,1.29-1.49.09-2.44,1.42-2.43l2.65.02c1.46,0,0,.88,1.44,2.4.24.25.54.68.8.73.46.09,1.58-1.18,1.65-1.96l.07-.85c.01-.17.54-.32.72-.32h2.6c1.49-.01.04.9,1.46,2.4.25.27.54.67.79.74s.71-.37.87-.64l.78-.77.19-1.7,3.6-.02c.78,0-.12,1.03,1.07,2.37.25.28.52.7.78.75.36.07.76-.43,1.02-.71,1.36-1.52.18-2.44,1.37-2.44h2.67c.18,0,.72.09.74.27l.08.9c.08.86,1.32,1.91,1.42,1.95.34.12.78-.43,1.01-.68.48-.51.8-.73.71-1.57-.04-.33.35-.87.66-.87h2.67c1.59.02.03.85,1.58,2.46.23.24.58.63.85.69.4.09.65-.44.92-.75,1.26-1.48.18-2.39,1.28-2.39h2.92c1.21,0,.02,1.72,1.31,2.34l.51.69c.13.17.78.06.91-.11l.85-1.13c.23-.31.17-1.11.31-1.71l3.89-.04.18,1.75.9.7v17.02c.02.18.68.2.91.1v-21.2s-58.67,0-58.67,0c-.28,0-.69-.37-.65-.56s.4-.54.62-.54h7.26s7.51,0,7.51,0h7.07s7.5,0,7.5,0h7.07s7.5,0,7.5,0h7.5c2.01.01,3.9-.03,5.81-.15l-5.54-.2-.1-4.25-.92-.05-.12,4.32h-6.16s-.1-3.6-.1-3.6c0-.31-.06-.73-.25-.77-.35-.08-.75.18-.76.51l-.05,3.87h-6.14s-.11-3.6-.11-3.6c0-.19.05-.72-.12-.72h-.74c-.17,0-.09.55-.09.74l-.12,3.57c-2.26.11-4.01.12-6.2-.05l-.06-4.03c0-.26-.89-.38-.91-.1l-.12,4.15c-2.22.15-4.02.15-6.2,0l-.09-3.56c0-.17-.03-.51-.05-.66-.02-.18-.59-.12-.76-.05s-.11.42-.12.72l-.1,3.57c-2.23.13-3.99.14-6.21-.03l-.07-3.98c0-.19-.44-.39-.63-.37-.22.03-.33.48-.33.79l-.06,3.59c-2.23.12-3.97.12-6.19,0l-.13-3.56-.02-.65c0-.18-.58-.17-.74-.08s-.12.44-.12.73l-.11,3.56c-2.19.14-4,.14-6.21.01-.05-2.15-.1-4.04.04-6.17.04-.53,1.1-1.08.78-2.04l4.5.03c.15.86.4,1.47.83,1.99l.25.61c.07.17.6.14.69-.02l.77-1.31.39-1.29h4.38c.58,2.62.12.41,1.06,2.58.07.17.57.31.66.15l.38-.71c.33-.62.6-1.05.77-1.94,1.24-.13,3.08-.13,4.42-.03.64,2.75.41.42,1.07,2.55.05.18.63.18.72.01l.75-1.33c.15-.27.34-.91.51-1.3l4.27.03c.68,2.59.25.43,1.05,2.55.06.16.57.32.66.17l.39-.65c.41-.69.63-1.11.81-2.05l4.38-.02c.52,1.93.17.67,1.15,2.7.08.16.63.14.7-.01l.32-.68c.33-.7.54-1.05.76-1.99h4.37c.29.8.51,1.35.8,1.97l.34.7c.08.16.63.16.71.01l.34-.67c.34-.67.52-1.06.76-1.99l4.35-.02c.19.67,1.05,2.84,1.5,2.8.24-.02.46-.39.6-.66l.59-1.12.44-1.07,4.29.06c.1.89.34,1.37.84,1.93l.16,4.28c.12.21.7-.25.69-.49l-.03-6.43h-60.38c-.19,0-.4-.64-.3-.79s.32-.29.85-.29h59.29c.48,0,.57-.25.58-.36.01-.09.11-.33-.64-.33h-59.18c-.56,0-.91-.13-.89-.31.19-1.49.35.24.48-2.06.01-.22.3-.65.52-.65,1.05,0,.05,2.05,1.08,2.01l.15-1.34c.03-.24.29-.61.5-.66.93-.22.25,1.96.91,2.04.6-.78.15-1.5-.16-2.22l.5-1.68.2-.69c.05-.16.58-.23.63-.07l.24.75.54,1.67c-.23.77-.98,1.44-.12,2.26.7-.65-.15-1.39.66-2.06.14-.11.63.19.65.37l.2,1.62c1.1.14.06-1.57.91-1.95.26-.12.69.31.71.58l.1,1.37c1.08-.04.31-.93.77-1.83.08-.16.64-.19.71-.03.54,1.28-.1,1.45.52,1.88.84-.65.15-1.53-.19-2.19.21-.57.45-1.16.57-1.67l.16-.67c.04-.17.57-.28.62-.11l.24.76.58,1.67c-.31.71-.87,1.4-.16,2.24.58-.26-.07-2.12.88-2.05s.18,1.89.75,1.89c.91.19.1-.93.66-1.75.1-.15.6-.16.67,0,.58,1.21-.29,1.89.76,1.85l.16-1.48c.02-.19.33-.49.49-.51.93-.13.22,1.97.85,2,1.25-1.01-.89-1.83.28-3.26l.27-1.22c.03-.15.57-.3.65-.17.1.16.22.48.3.77l.47,1.66c-.29.77-.44,1.41-.43,2.12.37,0,.56.04.57-.08l.07-.7.09-.89c.02-.23.72-.19.86-.02l.27,1.82c.94-.19.18-.96.73-1.89.09-.15.57-.16.67-.01.58.84-.31,1.91.75,1.83l.18-1.31c.03-.22.27-.62.48-.65s.54.44.57.68l.19,1.37c1.2-.84-.15-1.63.06-2.36l.56-1.95c.05-.16.37-.49.52-.43.64.27.14.25.79,1.88.55,1.38-1.17,1.86.04,2.82.68.02-.04-2.15.88-1.98.21.04.49.42.52.64l.17,1.3c.92.09.18-.93.72-1.8.09-.15.6-.17.68-.01.53,1.03-.26,1.73.73,1.89l.17-1.51c.02-.18.33-.48.5-.51.89-.18.29,1.79.83,2.02.82-.66.28-1.4-.1-2.1l.56-1.79.23-.74c.05-.16.58-.1.63.06l.21.7.51,1.7c-.37.67-.7,1.52-.22,2.16.72-.23.05-.69.6-1.88.07-.16.58-.12.69.03.5.71-.28,1.97.77,1.8l.11-1.3c.02-.22.3-.63.52-.65,1-.07.17,2.17,1.06,2.03l.2-1.39c.03-.23.25-.61.46-.64,1.05-.15.18,1.81.94,2.06.56-.8.15-1.52-.17-2.25l.49-1.65.2-.69c.04-.15.48-.2.61-.11.17.11.2.47.3.77l.54,1.72c-.36.61-.82,1.53-.22,2.11.77-.14.03-.94.59-1.83.09-.15.59-.14.68.01.52.85-.11,1.65.45,1.76.78.16.11-.81.62-1.77.08-.16.61-.17.69-.01.45.96-.12,1.96.63,1.77.65-.16-.11-1.75.72-1.88.28-.04.64.38.66.65.05.54.12,1.02.2,1.37.85-.51.51-1.22.1-1.79-.59-.83.33-.81.38-2.34,0-.21.37-.7.56-.63.67.24.18.39.84,1.91.57,1.32-1.25,1.91.08,2.85.56-.84-.06-.72.48-1.91.07-.16.64-.14.69.03.43,1.3-.25,1.75.74,1.84l.15-1.35c.02-.22.29-.62.5-.65.99-.12.08,2.13,1.07,2.01l.19-1.31c.04-.24.23-.62.44-.68.95-.28.35,2.01.85,2.01,1.49-.99-.64-1.34.24-3.1.37-.73.19-1.75.81-1.61.19.04.42.39.47.62l.53,2.05c-.37.67-.95,1.38-.08,2.08.62-.55-.15-1.35.62-2.02.16-.14.66.23.68.45l.13,1.55c1.01-.28.23-.16.76-1.89.05-.16.64-.04.79.06l.21,1.86c1-.17.31-.68.74-1.85.06-.16.67-.24.73-.07s.19.58.2.76l.06.88c.01.2.58.13.69,0l.07-3.55,1.55-.25c.01-4.93.26-2.77-1.89-6.62-.13-.43-.05-1.43,0-1.86.02-.16.65-.42.73-.27l.44.79,2.44-1.78.04-1.84c0-.14.18-.48.25-.58.09-.13.66-.02.69.14l.32,1.91c.41-2.73-.37-1.77-.05-3.72.17-1.03.12-2.2.1-3.29-.86.39-1.4.23-2.02-.41-.23-.23-.58-.96-.35-1.17.46-.42,1.13.24,1.41.61l3.91-1.44v-.97s-1.44-.11-1.44-.11l-.06-4.61c0-.25-.31-.76-.16-.91s.71-.21.84-.04l.55.77c1.43-1.49,3.31-1.95,4.56-3.65.34-.46.49-.9,1.13-.86,4.26.24,4.04-.59,4.79.9.81,1.61,3.03,2.2,4.37,3.63l.46-.78c.11-.19.77-.12.83.1l-.12,2.86-.07,2.8-1.8-.22.04,1.34,1.89-1.24c1.89,1.22,3.73,3,3.02,5.42l.7.76c-.52.53-.69,1.28-.47,1.75,1.43-.69,1.84.81,2.59-.32l.64-.95-.46-.4c-.1-.09.31-.53.32-.68.05-.91.06-2.47,0-3.44,0-.18-.42-.74-.27-.84l.75-.51-.93-.04c-.17,0-.36-.39-.28-.54l.41-.81c.09-.18-.43-.61-.43-.83l-.08-3.19-.86-.47c-1.27-.69,12.28-4,13.49-4.07,7.57-.41,14.97-.44,22.49.02,1.33.08,13.22,3.14,13.34,3.85.04.24-.5.49-.89.64l-.17,3.21c-.03.51-.39,1.07-.05,1.52.11.15.14.59-.02.62l-.93.15c-.32-.22.03.02.25.18.13.07.43.21.39.31l-.23.68c-.31.92-.26,3.11.11,4.15-.02.38-.06.79.04,1.06.14.39.77.91,1.1.78.61-.25,1.09-.31,1.8-.07.44-1.64-1.32-1.51.18-2.4-.69-2.73,1.26-4.39,3.17-5.62l-.07-2.57c-.03-.98-.08-1.97-.17-2.93.13-.1.64-.29.75-.13l.58.87c.89-.99,4.12-2.56,4.46-3.66l.2-.65c.09-.3,3.11-.14,4.47-.2.7-.03.78.28,1.16.82,1.19,1.71,3.13,2.11,4.6,3.74l.54-.85c.12-.18.66-.05.86.1-.05.36-.21.9-.22,1.21l-.07,4.3-1.41.09c0-.09,0,.05,0,.11l-.03.36-.03.39c0,.1.22.15.41.22l3.53,1.33c.3-.33,1-1.03,1.39-.63.31.32-.15,1-.44,1.29-.55.55-1.01.73-1.88.29-.06,1.04-.12,2.25.06,3.27.42,2.29-.22-.22-.14,3.36.12.45.15.47.16.03l.12-1.15c.02-.2.32-.55.51-.61s.58.38.58.59l.02,1.87,2.09,1.54.29.22c.08.06.19-.27.26-.36l.36-.41c.5-.58.96,1.38.61,2.22-1.01,2.47-2.23,1.39-1.84,6.59l1.53.25.06,3.42c0,.14.43.38.5.3.59-.64-.09-.85.48-1.87.09-.16.77.01.79.19l.08.84.06.71c.01.13.39.08.52.07l.1-1.23c.02-.19.2-.53.34-.64s.66.12.67.29l.09,1.44c0,.12.53.27.55.14.03-.17.08-.51.11-.79l.08-.86c.02-.22.8-.3.85-.09l.26,1.64c.02.13.59,0,.6-.15.04-.49-.26-1.33-.55-1.86l.51-1.58c.06-.17.09-.53.13-.71s.6-.3.7-.15.2.48.28.76l.49,1.68c-.26.54-.54,1.4-.46,1.92.02.16.59.11.6-.05l.16-1.52c.02-.18.85-.15.86.03.08,1.04,0,1.8.5,1.74.17-.02.29-.36.3-.57l.07-1.07c0-.12.35-.33.47-.32.17.01.49.31.5.48l.1,1.3c.01.14.57.14.57-.01l.05-1.12c0-.22.27-.6.47-.64.95-.21.27,1.73.88,1.99.95-.39.29-1.45.02-1.84-.33-.48.09-.74.49-2.19l.17-.61c.04-.16.61.05.66.21l.64,2.09-.47,1.43c-.04.12.02.59.05.72s.42.18.47.07c.38-.89-.06-1.84.6-1.83.59,0,.64.63.66,1.07l.03.69c0,.13.45.13.56.11l.1-1.39c0-.12.23-.41.33-.48.13-.11.62.14.63.3l.19,1.68c1.34.19-.21-2.62,1.55-1.82l.21,1.6c.01.08.33.17.38.11s.26-.34.23-.41l-.49-1.69.45-1.67c.07-.27.2-.61.3-.77.65-.97.92,1.9,1.29,2.17l-.46,1.76c-.03.11.11.52.18.62.09.13.51-.14.51-.29l.03-1.12c0-.13.23-.39.34-.46.15-.09.62.14.64.32l.14,1.19.04.41c0,.09.49-.02.5-.1l.09-1.34c0-.12.21-.4.32-.47.14-.1.65.14.67.31l.13,1.34c0,.08.19.23.25.28s.3-.16.31-.24l.08-1.05c.01-.15.1-.41.16-.53.08-.16.76-.15.78.03.03.36.15,1.19.15,1.58,0,.13.58.13.61-.03.07-.37-.1-1.16-.34-1.66-.17-.34.16-.97.29-1.4l.39-1.32c.03-.12.6-.02.63.1l.19.7.51,1.71c-.37.65-.84,1.53-.22,2.15.77-.38,0-.79.58-1.87.08-.15.6-.13.69.02s.17.5.18.7l.03.54c0,.12.07.38.12.49.06.15.56-.14.56-.3l.04-1.26c0-.13.35-.32.48-.32.17,0,.5.3.52.46l.1,1.3c0,.13.54.12.56-.02l.12-1.37c.01-.18.48-.46.63-.36.76.51.12,1.27.62,2.05.99-.82.2-1.52-.05-2.25l.48-1.67.2-.69c.05-.19.69-.15.73.04l.23,1.12c1.29,1.56-1.14,2.77.54,3.41l.13-1.54c.01-.16.19-.41.3-.47s.61.06.63.18l.17,1.35c.01.12.2.45.3.4s.29-.3.3-.43l.09-1.19c0-.12.34-.31.47-.33s.48.22.49.35l.12,1.52c.11.02.57.08.58-.06l.07-.71.08-.84c.02-.22.8-.36.83-.14l.23,1.39c.02.13.14.36.19.46s.4-.35.42-.47c.07-.47-.53-1.42-.42-1.85l.53-1.95c.04-.16.38-.48.52-.43.18.07.39.39.45.62l.43,1.76c.12.5-.58,1.54-.36,2.05.03.07.34.29.38.24.59-.79-.11-.38.47-1.87.05-.12.67-.07.71.05s.11.38.11.51l.05,1.09c0,.13.55.27.58.15s.07-.31.09-.52l.04-.47.06-.64c.02-.17.47-.31.63-.22s.35.46.35.64l.05,1.08c0,.12.49.24.51.13l.08-.56.16-1.1c.02-.14.48-.27.6-.2.16.09.34.43.35.61l.06,1.07c0,.11.33.22.43.25.23.08.48-.64,0-1.55-.69-1.29,0-.44.32-2.65.03-.18.39-.58.52-.49.16.11.36.43.42.65l.5,1.74-.45,1.62c-.03.11.13.53.19.63.08.13.44-.19.46-.34l.14-1.38c.01-.13.49-.22.6-.15s.31.35.32.48l.18,1.46c.94,0,.19-.83.73-1.83.08-.16.63-.19.68-.02.57,1.62-.36,1.71.83,1.86l.16-1.71.59-.27c.12-.05.35.32.36.45l.09,1.08c0,.12.14.35.19.45s.52-.38.48-.49l-.53-1.71.51-1.66.23-.74c.05-.16.59-.1.64.05l.2.7.47,1.66-.49,1.71c-.03.11.35.53.43.45s.28-.29.29-.4l.06-1.28c0-.18.79-.35.83-.18.09.42.22,1.26.29,1.73.13.04.52.14.52,0l.03-.77c0-.23.11-.72.21-.95.11-.25.83.05.86.32.07.67.14,1.2.3,1.64l.22.62c.04.13-.38.3-.57.3h-59.47c-.23,0-.46.02-.55.04s-.06.25-.07.66h59.9c.34,0,.72.19.79.36.09.22-.19.72-.56.72h-60.13s-.06,5.36-.06,5.36c0,.73-.09,1.66.75,1.69l.14-4.4c1.14-1,.31-2.03,1.42-2.01l3.88.09c.04.79,1.06,2.78,1.41,2.77.46-.02,1.33-1.99,1.52-2.79l4.29-.03.46,1.33.76,1.41c.07.02.56.1.62-.02l.36-.7c.24-.47.53-.91.61-1.36.04-.2.32-.68.53-.68l4.06.07c.07.87,1.02,2.7,1.4,2.76.34.05,1.51-1.91,1.44-2.75l4.46-.03c.55,2.49.11.37,1.05,2.59.07.17.61.28.69.12.72-1.35.94-1.44,1.11-2.67,1.31-.08,3.09-.09,4.44-.01.05.78,1.18,2.91,1.55,2.75.31-.13,1.34-1.93,1.38-2.77l4.31-.06.51,1.44c.46.19.81,2.18,1.27,1.35l.39-.7c.36-.65.66-1,.74-1.99l3.97-.12c.85-.03.25.44,1.27,1.95.15.22.4.79.59.93.12-.01.59-.3.55-.33l.62-1.21c.15-.29.32-.87.49-1.3l4.41.05c-.16.97.6,1.39.74,1.96,0,.59.58,6.29-.44,6.29h-5.02c-.39.01-.76-.47-.76-.75v-3.61s-.81-.03-.81-.03c-.13,0-.11.33-.11.55l-.1,3.77c-2.25.13-4.03.13-6.22-.03l-.06-3.56c0-.25-.08-.59-.18-.75s-.75.07-.76.26l-.1,4.04c-2.22.16-3.88.14-6.15.06-.47-1.84.54-4.49-.74-4.41-.22.01-.32.47-.32.79l-.09,3.59-6.17.03-.11-3.83c0-.16,0-.58-.13-.55l-.82.15-.07,4.16c-2.17.17-3.96.16-6.2.02l-.13-3.56c0-.18.07-.74-.09-.74l-.72.03c-.3.01.09,3.61-.27,4.32l-5.59.04c-.22,0-.58-.5-.58-.69v-3.35c0-.15-.2-.41-.32-.42-.15-.02-.66.15-.66.31l-.02,3.49c0,.17-.37.66-.54.66l-5.65-.06c-.14-1.43-.15-2.64-.12-4.02,0-.3-.87-.46-.88-.22l-.2,4.24-5.15.09c-.14.07-.42.21-.3.15l6.13.08h6.85s7.93,0,7.93,0h6.86s7.5,0,7.5,0h7.07s7.94,0,7.94,0c2.47,0,4.98-.09,7.33.12.2.18.04.98-.32.98h-58.84s-.01,20.94-.01,20.94c0,.27.45.47.68.37.19-.08.27-.38.27-.72l-.02-16.19c0-.35.71-.72.76-.99l.33-1.75,3.71-.05c.95,2.21-.56.78,1.02,2.45.22.23.58.68.83.7.34.03.67-.46.94-.77,1.31-1.52-.02-.37.9-2.37l3.77.02.25,1.79c.67.34,1.19,1.91,1.85,1.18l1.07-1.18.23-1.76,3.37-.1c1.14-.03.11,1.07,1.37,2.46.24.26.56.64.82.7.32.07.68-.29.85-.66l.68-.6.22-1.8c1.23-.07,2.61-.08,3.85-.01.74,1.72-.44.89.88,2.36.22.25.56.68.82.72.45.08,1.57-1.2,1.64-1.96l.08-.89c.02-.17.52-.27.7-.27l2.38-.03c1.76-.02.28.85,1.68,2.41.24.27.54.7.8.75.43.08,1.68-1.26,1.62-2.02-.03-.41.2-1.13.54-1.12l3.57.07.24,1.78.84.95c.15.17.72.45.87.29l.62-.68c1.25-1.37.15-2.46,1.39-2.43l3.29.08.21,1.52c.02.18,1.14,1.53,1.39,1.58.33.07.78-.47,1.02-.74.36-.41.78-.73.72-1.26-.06-.62.15-1.15.64-1.15h2.9c.31-.01.66.54.63.85-.08.84.24,1.07.71,1.66.97,1.2,1.2.22,1.4,1.08s-1.3.02-1.27,1.31c.02.83,1.43.26,1.28,1.03-.07.32-.72.55-1.18.61l-.04,11.58,1.01.38.16.49c.04.11-.28.33-.39.37l-.44.14c-.7.23.88.14,2.18.35.14.02.06.8-.08.83s-.31.1-.66.1h-225.84s-.27-.71-.27-.71c-.07-.18.5-.35.72-.36l1.73-.11-.93-.41c-.1-.04-.14-.46-.06-.54s.28-.21.4-.24l.61-.17c.13-.03.1-.41.1-.63l-.02-11.12-.94-.15c-.21-.03-.22-.67-.03-.75.3-.13.95-.25,1.02-.52.08-.35-.18-.9-.47-.96-2.4-.47,1.24-.98,1.41-2.92l.08-.9c.02-.17.54-.27.73-.28h2.81ZM456.52,45.29l-1.51-.36-.05,1.58c0,.2-.29.57-.48.59s-.56-.4-.56-.62l-.04-1.88-1.48-.39-.09,1.82c-.01.24-.63.59-.77.44-.11-.12-.26-.42-.27-.62l-.04-1.96c-.35-.13-1.13-.26-1.5-.26l-.06,1.78c0,.22-.19.58-.32.71s-.7-.12-.71-.3l-.1-2.19h-2.05s-.06,1.85-.06,1.85c0,.24-.3.67-.52.69s-.55-.44-.55-.69l-.05-1.85h-2.02s-.1,2.13-.1,2.13c0,.19-.54.49-.69.41-.12-.06-.3-.35-.31-.49l-.06-2.07-2.06.06-.04,2c0,.23-.49.62-.71.57-.18-.04-.55-.41-.56-.63l-.02-1.93h-2.08s.01,1.81.01,1.81c0,.25-.37.72-.59.69s-.51-.45-.51-.7l-.05-1.87-2,.04-.06,2.02c0,.23-.59.6-.76.46-.14-.11-.3-.45-.3-.66l-.05-1.84h-2.08s-.06,1.85-.06,1.85c0,.19-.18.54-.32.66s-.68-.18-.69-.38l-.1-2.1c-.41,0-1.19.1-1.51.21l-.03,2.04c0,.21-.29.61-.5.62-.16,0-.54-.33-.55-.49l-.11-1.84-1.52.42v1.9c-.02.21-.39.62-.57.57s-.47-.39-.48-.61l-.08-1.56-1.5.46-.05,1.6c0,.2-.32.55-.51.56s-.54-.36-.55-.56l-.06-1.3-1.51.44-.13,1.9c-.02.3-.91.16-.93-.1l-.13-1.48-1.63.42.04,2.93,11.88-3.25,21.58.02,11.72,3.24.04-2.95-1.65-.43-.07,1.22c-.01.22-.24.59-.44.63-.83.16-.54-1.64-.66-2.17l-1.5-.41-.06,1.3c0,.2-.35.6-.54.57s-.51-.41-.52-.6l-.07-1.63ZM479.67,44.64c-.1-.21-.68-.96-1.02-.96h-2.96s-.83.98-.83.98l4.8-.02ZM408.91,50.73c.02-5.68-7.28-5.28-10.9-4.7-2.12.34-4.53,2.55-3.89,4.73,5.03-.89,9.84-.79,14.8-.03ZM484.86,50.75c.16-2.3-1.37-3.74-3.24-4.56-2.69-.62-5.51-.65-8.21-.05-2.02.72-3.65,2.24-3.49,4.62,4.96-.84,9.9-.83,14.94,0ZM429.23,47.62v.62s20.33,0,20.33,0v-.62s-20.33,0-20.33,0ZM428.06,47.79l-10.87,3.01.16.58,10.87-3.01-.16-.58ZM450.83,47.79l-.16.58,10.84,3.01.16-.58-10.84-3.01ZM444.04,50l-.39.75c-.28.55-.21,1.81-.02,2.32l1.92.81c.19-1.01.26-2.23,0-3.22-.07-.27-.46-.86-.24-.94.67-.25,1.77-.36,1.95.11.07.19-.18.58-.29.9-.26.71-.4,2.38.1,2.94.62.68,1.29.87,1.09,1.95.67.05,1.57-.02,2.12.11l5.13,1.23-.68-.69c-.11-.12.37-.56.38-.74.06-.83.06-2.38-.03-3.34-.02-.25-.46-.9-.23-1,.73-.35,1.79.17,1.74.36l-.22.84c-.54,2.03.35,4.34.16,4.41l-.9.29,1.17.24.26-1.29c.2-.97.16-2.39.02-3.38-.03-.21-.48-.77-.27-.83l1.03-.32-3.25-.92-.29,1.51c-.48,2.45.45,3.95.27,4.06-.76.49-1.37,0-1.8-.4-.14-.13.34-.6.34-.81l-.02-3.39c0-.35-1.37-2.09-.77,3.16.03.25.43.81.23.91-.91.47-1.65-.1-1.78-.46-.07-.18.33-.65.33-.87.02-.92,0-2.46-.05-3.31-.01-.24-.46-.85-.26-.9l1.04-.29-1.45-.32c.21.54-.04.86-.17,1.41-.22.9-.15,2.31-.04,3.26.03.26.52.82.35,1-.41.45-1.44.52-1.98.01-.16-.15.32-.69.36-.91.17-1,.15-2.54.02-3.5-.02-.19-.52-.59-.42-.73l.35-.46c.53-.04,1.13-.09,1.52-.24h-21.99c.3.13.88.18,1.37.2.17.11.47.36.59.5s-.45.54-.47.75c-.09.85-.1,2.51.04,3.46.04.24.55.73.38.89-.62.56-1.53.49-2.01.05-.18-.17.34-.77.38-1.03.14-.89.21-2.4-.04-3.24-.18-.58-.4-.85-.22-1.41l-1.45.31,1.18.33c-.76,1.57-.5,3.42-.2,5,.13.69-1.31.92-1.73.44-.46.74-1.35,1.02-2.01.52l.34-.92c.32-.89.22-2.31,0-3.22l-.3-1.3-1.14.19c2.01.63-.04.31.69,4.78.03.18.38.68.24.79l-.72.57,5.4-1.31c.49-.12,1.44-.02,1.97-.08-.13-1.03.42-1.4,1.16-1.96.23-.75.23-2.16-.01-2.94-.1-.33-.44-.85-.22-.96.86-.41,1.88-.25,1.91.09.05.43-.91,1.69-.27,4.09l2.03-.92c.48-2.32-.75-2.86-.51-3.11.55-.6,1.85-.47,2.07-.02-.42,1.03-.55,1.98-.38,3.01l1.58-.74c.32-.15.69-.39.79-.64.37-.91-1.09-1.11-.72-1.65.09-.13.46-.34.62-.34h1.49c.17,0,.63.41.52.54l-.49.56c-.16.18-.3.82-.18,1.04.1.18.41.33.69.46l1.65.79c.37-1.95-.74-2.99-.33-3.2.99-.51,2.12-.03,1.95.3ZM425.79,55.35c1.24.24.79-4.18.61-4.49-.41.26-.74.72-.72,1.13l.11,3.36ZM406.89,52.81c.32-.52.47-.74.77-1.14-4.08-.6-8.33-.62-12.56.03l.55,1.12h11.24ZM422.01,51.8c.18.12-.22.65-.25.87-.33,2.62.05,2.69.19,4.71l1.2-.29-.94-.4c-.19-.08.29-.71.32-.93.09-.81.12-2.31-.02-3.17l-.24-1.42-2.77.73.53.66c.08.11-.32.57-.33.72l-.02,3.21c0,.19.45.7.34.85l-.51.69,1.13-.32-.5-.61c-.12-.14.42-.62.42-.83l-.03-3.24c0-.2-.54-.74-.38-.85.48-.34,1.22-.81,1.87-.37ZM483.21,52.82l.5-1.12c-4.24-.69-8.49-.61-12.56-.04l.82,1.14,11.24.02ZM459.32,58.1l-.46-.79c-.09-.15.33-.64.33-.83v-3.15c0-.17-.46-.62-.37-.76l.49-.72-1.26-.22.62.55c.12.11-.29.54-.31.72-.12.95-.12,2.51,0,3.51.02.18.41.68.28.81l-.46.45,1.14.42ZM419.04,58.21c-.54-.31-.93-.45-.88-.64.04-.15.31-.56.33-.73.11-.87.14-2.46-.03-3.31l-.25-1.25-1.14.31.92.38c.19.08-.3.75-.32.97-.07.79-.11,2.32.04,3.17.08.49.33.8.15,1.32l1.19-.21ZM461.08,53.74c-.04-.24-.4-.78-.19-.85l.84-.29-1.11-.32-.23,1.24c-.16.88-.14,2.41-.05,3.32.02.21.51.82.32.91l-.93.43c1.94,1.06,1.53-3.38,1.36-4.43ZM442.25,55.18l1.35.2c.63.09,1.02.14,1.81.19l.2,1.55h1.42c.05-.69.04-1.58-.08-2.12-.06-.29-.92-.29-1.18-.14-1.43.84-.75-.93-3.17-.6-1.07.15-.9-.9-3.15-1.6-2.87.84-1.95,1.89-3.5,1.58-1.84-.37-1.38,1.41-2.93.58-.28-.15-1.16-.05-1.17.28l-.07,2.06h1.49s.13-1.66.13-1.66h1.08s2.04-.35,2.04-.35c1.06-1.58,4.9-1.6,5.74.03ZM410.15,54.12c1.19.06,1.4,1.94,1.71,2.16.88.61-.08-2.18-1.75-2.98-1.01.63-1.68,1.57-2.13,2.54l.1.5c.24,1.25.55-2.31,2.07-2.23ZM468.8,54.12c.91.06,1.41,1.38,1.48,1.97.09.82,1.81-.11-1.54-2.84-.9.35-3.1,3.44-1.69,2.98.09-.03.53-2.2,1.75-2.12ZM400.36,58.27c.63-.34-.21-2.77.99-2.63,1,.11.14,2.34.82,2.62l.24-2.39c.14-.11.73-.26.8-.1.57,1.26-.21,1.76.5,2.33l.24-1.95c.02-.2.27-.47.44-.5.12-.02.5.23.51.35l.26,2.1c.5-.59.37-1.12.36-1.84,0-.27.52-.73.74-.59.83.54-.22,2.24.9,1.91-.43-1.34-.23-2.38.6-3.7l-11.85-.02c-1.19,0-2.37.5-3.47.89l.11,3.74.22-1.86c.02-.18.54-.4.71-.35.74.24-.09,2.12.55,2.15l.35-2.14c.03-.17.41-.45.57-.42.82.17.16,1.95.79,2.37l.33-2.42c.15-.09.63-.23.72-.08.67,1.12-.24,2.1.65,2.29l.19-2.07c.01-.16.63-.41.71-.27l.24.4c.07.81.09,1.31.36,2.14l.29-2.22c.02-.18.47-.46.61-.37.84.54,0,1.88.53,2.61ZM479.78,58.12c.92.1-.03-2.82,1.06-2.46.17.06.48.4.47.58l-.04,1.31c0,.1.08.34.12.43s.42-.06.42-.16l.05-1.68c0-.22.52-.59.69-.47.79.54,0,1.89.56,2.6.5-.2,0-2.69.97-2.37.88.29.1,1.9.8,2.57l.21-1.66c.03-.21.32-.55.5-.57s.48.31.5.49l.16,1.78c.13-1.26.12-2.46.09-3.8-1.6-.66-3.02-.85-4.67-.84l-10.54.05c.9,1.36.73,2.34.73,3.85.45-.39.35-1.03.34-1.67l.54-.45c.13-.11.51.36.52.55l.11,1.92c1.04-.07,0-1.9.84-2.46.15-.1.6.18.63.35l.32,2.22c.53.16-.07-3.22.98-2.57.95.59-.12,2.24.61,2.56l.31-2.19c.03-.18.43-.44.59-.4,1.06.21.1,2.34.81,2.58l.2-2.17c.02-.17.53-.47.67-.37.1.08.28.34.3.5l.15,1.95ZM442.82,60.38c.04.48-.09,1.12-.21,1.71.98-.03,1.43.93,1.3,1.75-.03.21.89.21.91,0v-5.29c0-.37-.46-1.13-.6-1.48-.65-1.58-2.11.25-2.9-1.36-.36-.74-1.24-.49-1.88-.54-1.01-.08-1.88-.03-2.23,1.17l-2.02.07c-.85.81-1.14,1.99-1.13,3.15l.03,4.37.72.11c.14.02.13-.42.12-.63-.02-.81.68-1.24,1.39-1.34-.19-.44-.39-1.21-.29-1.68.23-1.04,1.43-.62,2.25-2.39.45-.39,1.97-.19,2.41,0,.32,1.61,2.06,1.38,2.15,2.38ZM430.72,56.67l-1.55.09.07,1.29,1.55-.09-.07-1.29ZM448.13,56.72l-.03,1.29,1.51.04.03-1.29-1.51-.04ZM411.64,57.51c-.97-.7-2.14-.65-3.04,0h3.04ZM422.22,59.64l5.68-1.5c.24-.13.3-.94.15-1.2l-9.79,2.53c.76.88,1.42.16,2,.26.79.14,1.13.13,1.95-.08ZM458.61,59.76c.62-.06,1.33.55,1.89-.3l-9.69-2.52c-.04.44-.04.91.04,1.21l5.85,1.51c.7.18,1.02.19,1.9.1ZM470.26,57.5c-.94-.67-2.12-.64-3.1,0h3.1ZM432.09,58.28v5.75s.88,0,.88,0v-5.75s-.88,0-.88,0ZM446.77,63.42l-.03-4.92c0-.26-.88-.31-.88-.04v5.28c.01.22.61.41.71.3s.2-.38.19-.61ZM392.48,62.25l2.2-.33v-2.69s-2.23.46-2.23.46l.04,2.56ZM406.91,61.82l-.07-2.71h-11.03s0,2.71,0,2.71h11.1ZM431.21,59.37c-1.58-.57-2.95-.22-4.47.25.3.41.82.37,1.3.12.82-.44.83.84,3.17-.36ZM451.98,59.6c-1.34-.52-2.91-.62-4.17-.4-.02.22-.06.6.02.57s.33-.11.42-.13l1.3.31c1.42-.95,1.8.78,2.42-.35ZM483.04,61.84v-2.73s-11.06,0-11.06,0l-.04,2.72h11.1ZM486.35,62.25v-2.55s-2.18-.48-2.18-.48l-.02,2.68,2.19.34ZM411.59,60.74l-.13,2.39c-.95.25-1.94.23-2.76-.03-.39-1.2.46-2.13-.55-3.27-.2,1.49-.17,2.79-.12,4.19l4.15-.02v-3.72c0-.12-.55-.35-.55-.23l-.04.68ZM410.46,60.07h-.79s0,2.16,0,2.16h.79s0-2.16,0-2.16ZM470.25,60.75c-.03.89-.08,1.71-.16,2.48-1.06.11-1.79.07-2.73-.07l-.07-2.55c0-.12-.08-.42-.1-.53s-.55.09-.55.23l.03,3.72h4.12s-.01-3.87-.01-3.87c-.21-.05-.52-.13-.52,0l-.02.6ZM469.12,60.37c-.02-.19-.55-.42-.58-.28l-.11.54c-.11.55-.1,1.38.35,1.7.49-.29.39-1.46.34-1.97ZM414.75,63.36l-.03-2.04c0-.19-.32-.53-.49-.5s-.46.48-.45.66l.04,2.3c0,.16.48.3.64.28s.3-.43.3-.7ZM416.78,63.79l-.03-2.49c0-.18-.43-.6-.55-.48-.09.08-.41.4-.41.52l.05,2.54c0,.2.94.11.94-.09ZM418.8,63.4l-.05-2.09c0-.18-.31-.51-.47-.49-.12,0-.38.36-.39.51l-.04,2.18c0,.2.27.58.46.59s.5-.45.49-.69ZM420.77,63.94v-2.61c0-.21-.38-.63-.51-.52-.1.08-.38.4-.38.54l.02,2.64.87-.05ZM422.85,63.76v-2.46c0-.21-.51-.59-.65-.45-.11.11-.35.49-.35.68l.07,2.4c.15.15.93.1.93-.16ZM424.85,63.98v-2.66c0-.19-.37-.61-.52-.53-.11.06-.4.39-.4.52v2.67s.92,0,.92,0ZM426.91,63.94v-2.63c-.01-.17-.35-.52-.5-.5s-.49.34-.49.52v2.67s.99-.06.99-.06ZM428.9,63.81v-2.48c0-.18-.32-.51-.49-.52-.13,0-.42.38-.42.52l.02,2.54c0,.22.88.18.88-.05ZM431.01,63.75l.03-2.44c0-.2-.56-.6-.71-.47-.12.1-.35.48-.35.65l.03,2.39c.06.22,1,.16,1-.12ZM448.84,63.77l.02-2.31c0-.21-.29-.62-.48-.65-.16-.03-.57.36-.57.54l.03,2.59c.23.11,1,.06,1-.17ZM450.86,63.71l-.02-2.43c0-.17-.44-.57-.55-.46-.09.08-.33.38-.33.51l.03,2.66c.24.03.87-.09.87-.29ZM452.88,63.78v-2.47c0-.19-.33-.53-.49-.5-.12.02-.44.37-.44.51l.04,2.54c0,.22.89.18.89-.07ZM454.91,63.81v-2.5c0-.2-.45-.59-.58-.48-.1.08-.38.39-.37.51l.02,2.53c0,.23.93.18.93-.06ZM456.92,63.8v-2.48c.01-.18-.3-.52-.46-.51s-.46.35-.46.52l.02,2.5c0,.24.9.24.9-.03ZM459,63.79l-.02-2.49c0-.19-.45-.6-.58-.49-.1.08-.38.4-.38.53l.04,2.53c0,.24.94.18.94-.08ZM461.03,63.44l-.02-2.14c0-.2-.57-.58-.69-.43-.1.12-.26.45-.26.61l.02,2.28c0,.16.53.4.65.3s.31-.45.31-.62ZM462.97,63.83l.03-2.52c0-.17-.4-.58-.53-.48-.1.08-.37.38-.37.5v2.47c0,.25.86.26.87.03ZM465.04,63.76l.02-2.32c0-.2-.26-.63-.45-.63-.16,0-.55.34-.54.52l.04,2.51c0,.27.93.2.93-.09ZM406.84,63.86c.05-.42-.02-.96-.26-.96h-10.69c-.37,0-.75.58-.77.96h11.73ZM483.66,63.86c-.03-.76-.46-.96-.97-.96h-10.52c-.26,0-.34.97-.1.97h11.6ZM393.35,64c.24-.04.57-.59.64-.86l-3.41.53-1.3.98,4.08-.66ZM489.55,64.67c-.32-.25-.95-.89-1.34-.96l-3.31-.59c0,.44.35.78.77.92l3.88.62ZM402.47,66.77c-.41-.38-.65-1.17-.6-1.56.02-.16-.61-.37-.63-.2l-.1.82c-.03.26-.33.78-.58.73-.84-.17-.27-1.73-.81-1.62-.7-.06-.12.83-.69,1.53-.1.12-.45.1-.56-.01s-.2-.46-.23-.67l-.11-.8c-.02-.13-.52-.08-.55.04l-.1.58-.12.71c-.03.17-.59.31-.68.16s-.25-.54-.29-.72l-.17-.79c-.03-.13-.5-.03-.51.1l-.06.71c-.01.16-.15.54-.25.66s-.44.14-.55.03-.23-.49-.25-.65l-.11-.83c-.02-.17-.62-.03-.62.14l-.03.69c-.01.23-.34.73-.58.73-.7.01-.37-1.24-.69-1.29-.12-.02-.41-.02-.44.1l-.16.63c-.07.26-.14.52-.19.67s-.58.18-.63.03l-.22-.72c-.59-1.94-.54.77-1.33.81-.23.01-.45-.43-.62-.81-.12-.07-.78.06-1.13.17l1.26,2.06h8.42s.87-.7.87-.7c1.29,1.76,2.93-.09,4.06-.73ZM475.84,66.38l-.06-1.44c-1.47,0-2.44-.05-3.74.19h-65.11c-1.41-.26-2.51-.19-3.94-.16l.02,1.42,1.56-1.04h69.63s1.62,1.03,1.62,1.03ZM486.11,65.82c-.03.2-.21.62-.4.69-.15.06-.52.02-.55-.13l-.19-.82c-.04-.16.03-.55-.1-.56h-.54c-.3-.02.17.55-.34,1.46-.1.18-.67.06-.7-.14l-.15-.75-.12-.6c-.03-.14-.54-.06-.56.08l-.06.54c-.03.26-.12.67-.23.84s-.64.14-.69-.06l-.17-.8-.12-.56c-.02-.11-.48-.13-.49-.01l-.08.6c-.03.21-.2.69-.31.85s-.63.07-.67-.14l-.14-.75c-.06-.3-.07-.45-.14-.57s-.52-.1-.53.04l-.05.55c-.02.24-.19.72-.32.9-.1.15-.65-.01-.68-.19l-.13-.68-.05-.54c-.01-.14-.55-.21-.57-.07l-.07.63c-.04.31-.3.75-.61,1.14l2.07,1.3c.68.43,1.59-.04,2.06-.57l.9.71,8.32-.02,1.3-2.08-1.15-.2c-.21.46-.41.85-.64.87-.74.06-.14-1.01-1.06-1.26-.44-.12.03.59-.63,1.27-.11.12-.55-.11-.58-.26l-.15-.73c-.03-.14-.18-.45-.27-.52s-.32-.09-.34.02l-.07.52ZM478.62,69.63l-4.83-3.22h-68.64c-1.69,1.02-3.22,1.99-4.8,3.23h78.28ZM399.29,81.98l-3.55-.24c-.33-.02-.17-1.01.08-1.27l-.68-.98c1.58-.98-.64-4.28,2.67-5.17.83-.22.7-1.11,1.68-1.74l-1.6-2.08c-.15-.19-.12-.97-.14-1.23h-8.4s0,41.69,0,41.69h15.36s.04-5.09.04-5.09c.44-.57.53-1.24,0-1.83l.4-1.16v-15.89s-11.58-.03-11.58-.03c-.16-1.26.87-2.42,1.53-3.09.39-.4-.07-.51-.2-1.62-.06-.52,4.15.07,4.4-.27ZM483.91,82.44l-.34,1.27c.9.83,1.66,1.75,1.79,3.23l-11.67.04v16.06s.39.97.39.97c-.46.54-.53,1.2,0,1.71l.05,5.22h15.36s0-41.68,0-41.68h-8.39c-.04.38-.07,1.1-.25,1.33l-1.54,2.01c1.34.77.29,1.27,2.29,1.98,2.41.85.65,4,2.1,4.9l-.63.92c.13.55.18.93.14,1.37l-6.13.14c1.05.52,7.07-.43,6.81.51ZM405.48,74.3l-.05-3.62-5.94.07,4.7,5.99.16-2.23,1.13-.21ZM472.31,70.7h-65.76v3.71h65.76v-3.71ZM474.69,76.7l4.64-5.92-5.91-.09v3.6s1.12.27,1.12.27l.15,2.14ZM388.18,73.7h-.43v11.36h.43v-11.36ZM491.04,85.06c-.06-3.91.2-7.61-.18-11.53-.52,3.65-.07,7.26-.27,10.88-.01.19.3.59.46.64ZM401.99,80.68l-.68-1.2c.95-.65.79-3.34,0-3.76l-1.94-1.04-1.94,1.06c-.72.4-.83,2.95-.02,3.76l-.6,1.2h5.17ZM476.84,80.7l5.22-.03-.68-1.17c.93-.81.75-3.35,0-3.76l-1.94-1.06-1.8.95c-1.07.56-.98,3.09-.15,3.87l-.66,1.21ZM408.55,77.9v-1.1s-.97.08-.97.08c-.27.02-.14-1.31-.35-1.32l-.5-.04c-.12-.01-.08.41-.11.55l-.21.78c-.04.17-.7.09-.74-.08l-.29-1.15-.02,2.31h3.18ZM414.97,75.42h-6.32v.21h6.32v-.21ZM419.09,110.91l.1-5.14c.01-.56.83-1.18-.13-1.74l.5-.99-.06-17.93c0-.46-.45-.72-.14-1.2.79-1.24.08-2.69-.12-3.98-.08-.52-.24-.94-.46-1.39l-.35-2.03-.35,1.59c-.05.24-.83.07-.87-.2-.11-.65-.12-1.58.12-2.36l-1.75-.04c.2.78.23,1.79.1,2.45-.05.24-.84.35-.88.13l-.16-.77-.14-.64c-.02-.09-.26.08-.25.17v.52c.01.59-.25,1.23-.38,1.8l-.68,2.9c-.08.42.1,1.38.31,1.75.26.45-.08.89-.08,1.33v18.02c0,.41.4,1.12.03,1.46-.24.22.27.95.28,1.25l.1,5.03,5.28-.02ZM424.83,75.42h-6.75v.21h6.75v-.21ZM430.41,105.76c.1-.73.45-1.22-.16-1.82l.45-.91-.02-17.87c0-.18-.49-.63-.39-.78s.37-.49.4-.66c.4-2.68.08-1.23-.32-3.79-.08-.51-.24-.93-.43-1.38l-.37-2.05-.23,1.33c-.09.13-.21.33-.28.45-.47.74-1.22-1.59-.57-2.75l-3.04-.03.17,2.09c.02.23-.44.78-.64.69s-.43-.43-.48-.67l-.22-.98c-.41,3.34-.31.96-.79,3.44-.24,1.25-.8,2.56-.15,3.78.27.5-.07.85-.07,1.35v17.88c0,.5.49,1.19-.06,1.63-.09.22.36.89.37,1.18l.1,5.07h6.57c.08-1.79-.05-3.48.17-5.2ZM435.97,75.42h-6.75v.21h6.75v-.21ZM444.01,110.91l.07-4.97c0-.33.59-1.08.33-1.31-.43-.37.02-.98.03-1.5l.03-17.94c0-.19-.42-.57-.36-.71l.27-.62c.55-1.25.1-2.53-.18-3.8-.6-2.67-.57-.36-.69-3.48-.19.25-.28.58-.33,1-.03.29-.4.76-.65.67-.73-.26-.63-2.58-.03-2.78h-5.94c.21.69.42,2.64-.27,2.78-.21.04-.59-.32-.64-.55l-.22-1.05c-.42,2.87-.24,1.04-.83,3.58-.28,1.19-.74,2.44-.1,3.6.27.48-.1.85-.1,1.32v18.01c0,.41.43,1.06,0,1.49-.21.2.31.92.32,1.19l.1,5.06h9.2ZM449.69,75.42h-6.75v.21h6.75v-.21ZM455.22,110.95l.09-5.13c0-.34.53-1.09.25-1.28-.59-.4.07-.95.07-1.34l-.02-18.02c0-.41-.4-.88-.1-1.33.23-.35.42-1.35.31-1.79l-.7-2.88c-.15-.6-.34-1.18-.41-1.8l-.06-.58c0-.08-.24-.02-.25.06l-.07.5-.12.78c-.03.18-.8.11-.85-.07-.15-.6-.12-1.74.06-2.55l-3.17-.02c.51.35.45,2.89-.23,2.79-.17-.03-.47-.35-.52-.53l-.32-1.12-.28,1.91c-.22.51-.35.97-.47,1.52-.47,2.06-.74,2.67.13,4.42.06.13-.38.52-.38.76l-.02,17.58.44,1.21c-.91.57-.09,1.25-.08,1.83l.1,5.1,6.61-.02ZM460.83,75.42h-6.75v.21h6.75v-.21ZM465.02,110.91l.08-5.02c0-.3.55-.94.41-1.2l-.43-.81c-.07-.14.42-.58.46-.75l-.02-17.92c0-.17-.47-.56-.41-.71l.31-.66c.18-.38.34-1.34.24-1.76l-.68-2.94c-.13-.55-.37-1.17-.43-1.76l-.05-.58c0-.07-.22-.03-.23.05l-.08.51-.13.77c-.03.18-.77.09-.82-.08-.17-.58-.32-1.88.25-2.52l-2.13-.05c.51.35.5,3-.21,2.82-.17-.04-.44-.37-.5-.53l-.29-1.26-.32,2.04c-.24.51-.37.95-.47,1.51-.22,1.24-.83,2.64-.1,3.85.3.49-.11.79-.11,1.25l-.06,17.72c.05.27.32.88.44,1.15-.91.61-.1,1.23-.09,1.83l.1,5.08,5.26-.02ZM470.26,75.42h-6.32v.21h6.32v-.21ZM473.51,77.94l-.08-2.34-.31,1.17c-.04.16-.68.22-.72.05l-.19-.74-.15-.57c-.03-.12-.48-.04-.49.09l-.04.5c-.02.21-.11.79-.32.77l-.98-.09.02,1.13,3.26.04ZM413.14,76.68h-3.26s0,1.24,0,1.24h3.26s0-1.24,0-1.24ZM422.96,77.91v-1.21s-3.23,0-3.23,0l.09,1.22,3.14-.02ZM434.16,76.68h-3.3s0,1.25,0,1.25h3.3s0-1.25,0-1.25ZM444.64,76.68v1.24h3.3v-1.24h-3.3ZM455.88,76.65l-.02,1.26,3.23.05.02-1.26-3.23-.05ZM465.67,76.68v1.24s3.3,0,3.3,0v-1.24s-3.3,0-3.3,0ZM403.64,83.72l1.48,1.97c-.05-.33-.2-.79-.36-1.16,1.19-2.44.1-3.02.02-5.17l-1.67-2.11c-.35.95-.13,1.68.56,2.22l-.73,1.02c.28.25.42,1.2.13,1.25l-3.57.25,4.39.11-.26,1.63ZM474.98,82.51c-.05-.22.56-.63.71-.71-.16-.4-.12-.77.18-1.34l-.69-1c.79-.51.85-1.41.58-2.31l-1.67,2.14c-.19,2.61-1.19,2.32-.03,5.3-.15.36-.28.75-.33,1.18l.96-1.46c.12-.19.61-.45.56-.67l-.27-1.13ZM409.23,80.16c-.91,1.14-.59,4.8.18,3.99.6-.64.51-3.18-.18-3.99ZM469.64,80.15c-.75.72-.89,3.67-.09,4.04.74.34.88-3.02.09-4.04ZM333.69,85.45c-.07-1.19.09-2.19-.24-2.92l-.66-1.47h-2.41c-1.12,2.41-.95,1.32-.8,4.42l4.11-.04ZM341.01,85.47c-.25-3.78.31-1.72-.93-4.4h-2.41c-1.11,2.3-.78,1.6-.81,4.4h4.15ZM348.33,85.48c-.31-3.81.34-1.71-.95-4.4h-2.37s-.78,1.52-.78,1.52l-.14,2.85,4.24.03ZM355.6,85.47c-.19-3.44.28-1.93-.91-4.4h-2.41c-1.08,2.52-.77.94-.86,4.39h4.17ZM362.92,85.46c-.26-3.38.33-1.89-.93-4.4l-2.37.02-.8,1.48-.13,2.91h4.22ZM370.2,85.46c-.19-3.38.32-1.93-.89-4.4h-2.43c-1.05,2.57-.77,1.13-.79,4.41h4.11ZM377.6,85.45c-.25-3.96.16-1.71-.94-4.39l-2.44.02c-1.17,2.56-.71,1.16-.84,4.38h4.22ZM384.8,85.46c0-1.05.19-2.2-.12-2.83l-.78-1.59-2.37.06c-1.16,2.4-.71,1.32-.85,4.38h4.12ZM498.22,85.44c-.24-3.86.24-1.72-.93-4.37h-2.42s-.71,1.57-.71,1.57c-.32.72-.09,1.84-.11,2.84l4.17-.04ZM505.51,85.47c-.19-3.55.24-1.83-.9-4.4h-2.44c-1.15,2.48-.67,1.31-.86,4.39h4.21ZM512.78,85.48c-.04-1.14.11-2.14-.21-2.91l-.63-1.5-2.4.02c-1.23,2.33-.76,1.33-.91,4.39l4.15.02ZM520.13,85.45c-.05-1.11.12-2.24-.18-2.86l-.73-1.52h-2.39c-1.22,2.58-.73,1.01-.92,4.41l4.22-.03ZM527.48,85.46c-.24-3.68.23-1.8-.95-4.39h-2.4c-1.16,2.35-.79,1.52-.84,4.41l4.19-.02ZM534.77,85.45c-.24-3.51.28-1.83-.93-4.37h-2.43c-.97,2.21-.86,1.75-.78,4.39l4.14-.02ZM542.07,85.44c-.27-3.59.33-1.74-.93-4.37h-2.38s-.8,1.51-.8,1.51l-.11,2.9,4.22-.03ZM549.33,85.47c-.04-1.06.19-2.21-.11-2.84l-.76-1.57-2.38.03c-1.11,2.31-.84,1.54-.86,4.38h4.11ZM409.67,84.81h-.89s0,18.76,0,18.76h.89s0-18.76,0-18.76ZM469.18,84.84v18.73s.87,0,.87,0v-18.73s-.87,0-.87,0ZM403.7,85.88c.07-.21-.31-.84-.57-.84l-7.17-.02c-.22,0-.63.17-.74.27s-.07.48.04.6l8.45-.02ZM406.23,85.03l-.03,18.36h1.5s.03-18.36.03-18.36h-1.5ZM412.26,85h-1.5v18.43h1.5v-18.43ZM420.62,85v18.42s1.51,0,1.51,0v-18.42s-1.51,0-1.51,0ZM431.79,85v18.38s1.5,0,1.5,0v-18.38s-1.5,0-1.5,0ZM447.07,85.01h-1.51s.03,18.39.03,18.39h1.51s-.03-18.39-.03-18.39ZM456.72,85v18.4h1.51v-18.4h-1.51ZM468.1,85h-1.49v18.4h1.49v-18.4ZM472.62,85h-1.49v18.39h1.49v-18.39ZM483.75,85.88c-.03-.49-.38-.85-.81-.85h-6.93c-.47,0-.9.35-.8.85h8.54ZM333.66,86.55h-4.14s0,.64,0,.64h4.14s0-.64,0-.64ZM336.86,86.56v.64h4.11v-.64h-4.11ZM344.1,86.56v.62h4.15v-.62h-4.15ZM355.58,86.53l-4.14.03v.65s4.15-.03,4.15-.03v-.65ZM362.89,86.55h-4.16s0,.64,0,.64h4.16s0-.64,0-.64ZM366.08,86.56v.63h4.1v-.63h-4.1ZM373.38,86.56v.62h4.16v-.62h-4.16ZM380.68,86.56v.63h4.14v-.63h-4.14ZM498.14,86.55h-4.12s0,.64,0,.64h4.12s0-.64,0-.64ZM501.33,86.56v.63h4.16v-.63h-4.16ZM508.62,86.56v.63h4.14v-.63h-4.14ZM520.09,86.55h-4.17s0,.65,0,.65h4.17s0-.65,0-.65ZM523.26,86.56v.62h4.19v-.62h-4.19ZM530.6,86.56v.63s4.14,0,4.14,0v-.63s-4.14,0-4.14,0ZM537.89,86.56v.63s4.15,0,4.15,0v-.63s-4.15,0-4.15,0ZM545.2,86.56v.64h4.14v-.64h-4.14ZM388.18,89.56h-.43v21.32h.43v-21.32ZM491.05,89.56h-.43v21.43h.43v-21.43ZM333.55,98.12l-.09-3.76c-.6-.52-1.01-1.01-.89-2.02l-2.05.04c.07,1.07-.1,1.49-.88,1.95v3.8s3.9,0,3.9,0ZM340.82,98.1c-.01-1.41.04-2.62-.13-3.72-.41-.61-.98-1.04-.79-2.04l-2.09.06c.19,1.05-.24,1.45-.8,1.94l-.05,3.78,3.86-.02ZM348.13,98.12l-.07-3.75c-.58-.55-.98-1.07-.92-2.02h-1.96c.04.94-.22,1.49-.9,2l-.04,3.75,3.88.02ZM355.44,98.1l-.09-3.73c-.57-.59-.92-1.04-.85-2.06l-1.94.09c.01,1.01-.41,1.47-.92,1.94l-.08,3.75h3.88ZM362.81,98.09l-.1-3.73c-.69-.57-.94-1.01-.93-2.03l-1.94.08c-.03,1.02-.27,1.48-.95,1.96l-.04,3.76,3.96-.03ZM370.08,98.09c0-1.49.02-2.58-.12-3.72-.59-.59-.83-1.07-.92-2.01-.48-.03-1.49,0-1.92.06.22,1.03-.53,1.41-.78,1.95-.28,1.2-.14,2.5-.12,3.76l3.85-.04ZM377.41,98.12l-.07-3.74c-.65-.55-.93-1.06-1.01-2.04l-1.89.04c.04,1.07-.26,1.42-.88,1.96l-.04,3.78h3.88ZM384.74,98.1l-.13-3.82c-.65-.39-.82-1-.96-1.76-.24-.32-1.6-.28-1.86-.02-.08.84-.28,1.37-.9,1.84l-.05,3.79,3.9-.03ZM498.02,98.09c0-1.49.04-2.58-.13-3.73-.55-.59-.81-1.08-.93-2.01-.46-.03-1.42,0-1.93.04-.13,2.99-1.19.03-.82,5.74l3.81-.05ZM505.34,98.13l-.08-3.75c-.51-.54-.89-1.08-.99-2.03l-1.88.04c-.29,3.05-1.28.14-.88,5.73h3.82ZM512.61,98.12l-.04-3.85c-.8-.45-.86-.98-.85-1.94l-2.06.05c.21,1.11-.33,1.41-.79,1.96-.11,1.2-.09,2.47-.08,3.76h3.81ZM519.97,98.12l-.03-3.78c-.78-.48-.94-1.01-.89-2l-2.05.04c.09,1.07-.25,1.47-.87,1.98l-.05,3.76h3.9ZM527.3,98.11l-.08-3.73c-.58-.56-1.03-1.03-.89-2.03l-2.01.03c.03,1.07-.17,1.51-.91,1.97l-.02,3.77h3.91ZM534.6,98.11l-.09-3.72c-.59-.56-.93-1.09-.91-2.04h-1.96c.07.95-.25,1.49-.88,2.02l-.05,3.76h3.89ZM541.89,98.12l-.03-3.79c-.79-.49-.92-1.05-.92-1.99h-2.03c.06.95-.11,1.53-.88,1.99v3.78s3.86,0,3.86,0ZM549.16,98.09c.29-6.17-.73-2.47-.9-5.77l-1.96.08c-.03.99-.22,1.47-.93,1.87l-.02,3.86,3.81-.05ZM335.88,95.39h-1.28v1.25h1.28v-1.25ZM341.91,95.38l-.03,1.25,1.3.03.03-1.25-1.3-.03ZM349.2,95.39v1.25s1.3,0,1.3,0v-1.25s-1.3,0-1.3,0ZM357.87,96.01c0-.4-.32-.72-.72-.72s-.72.32-.72.72.32.72.72.72.72-.32.72-.72ZM363.84,95.39v1.25h1.25v-1.25h-1.25ZM372.52,96.01c0-.39-.32-.71-.71-.71s-.71.32-.71.71.32.71.71.71.71-.32.71-.71ZM379.81,96.01c0-.39-.32-.71-.71-.71s-.71.32-.71.71.32.71.71.71.71-.32.71-.71ZM500.46,96.01c0-.39-.32-.71-.71-.71s-.71.32-.71.71.32.71.71.71.71-.32.71-.71ZM507.75,96.01c0-.39-.32-.71-.71-.71s-.71.32-.71.71.32.71.71.71.71-.32.71-.71ZM513.72,95.39v1.25s1.28.01,1.28.01v-1.25s-1.28-.01-1.28-.01ZM522.37,96.01c0-.39-.31-.7-.7-.7s-.7.31-.7.7.31.7.7.7.7-.31.7-.7ZM528.36,95.39v1.25h1.28v-1.25h-1.28ZM535.66,95.38l-.03,1.24,1.31.03.03-1.24-1.31-.03ZM542.95,95.39v1.25h1.3v-1.25h-1.3ZM335.89,97.71h-1.28v11.88h1.28v-11.88ZM343.19,109.44l-.02-11.68-1.27-.02v11.73c.43.09.89.08,1.28-.03ZM350.48,109.42l-.02-11.65c-.44-.04-.98-.02-1.26.1v11.61c.42.09.88.07,1.28-.05ZM357.79,109.45l-.02-11.7h-1.25s-.04,11.73-.04,11.73c.44.07.89.07,1.31-.03ZM363.84,97.71v11.88s1.25,0,1.25,0v-11.88s-1.25,0-1.25,0ZM372.45,97.71h-1.28v11.9h1.28v-11.9ZM379.74,109.39l-.02-11.57-1.25-.06-.02,11.72c.44.11,1.02.1,1.29-.09ZM500.39,97.71h-1.28v11.89h1.28v-11.89ZM507.71,109.23l-.06-11.42-1.24-.07v11.59c-.01.37,1.3.4,1.3-.11ZM513.71,97.71v11.88h1.29v-11.88h-1.29ZM522.32,97.7h-1.26v11.9h1.26v-11.9ZM529.64,109.42l-.02-11.65c-.44-.04-.98-.02-1.27.09v11.62c.43.09.88.07,1.28-.05ZM536.98,109.44l-.05-11.69h-1.26s-.02,11.73-.02,11.73c.45.08.87.08,1.33-.03ZM544.25,97.71h-1.3v11.88h1.3v-11.88ZM329.63,99.19v1.1s3.9,0,3.9,0v-1.1s-3.9,0-3.9,0ZM336.96,99.2v1.09h3.85v-1.09h-3.85ZM344.25,99.19v1.09s3.87.01,3.87.01v-1.09s-3.87-.01-3.87-.01ZM355.42,99.2h-3.87s0,1.1,0,1.1h3.87s0-1.1,0-1.1ZM362.68,100.28c.05-.21.02-.88-.04-1.06h-3.75s.09,1.08.09,1.08l3.7-.02ZM366.14,99.2v1.09s3.94,0,3.94,0v-1.09s-3.94,0-3.94,0ZM377.37,100.27l-.06-1.1-3.64.1c-.28,0-.12,1.02.17,1.02l3.54-.02ZM380.84,99.2v1.09h3.88v-1.09h-3.88ZM497.87,100.23c.21,0,.16-1.01-.05-1.01l-3.25-.03c-.17,0-.42.4-.42.54s.25.57.41.56l3.32-.07ZM505.27,100.27l-.02-1.08-3.61.05c-.27.02-.18,1.05.13,1.05l3.5-.02ZM512.65,99.2h-3.87s0,1.09,0,1.09h3.87s0-1.09,0-1.09ZM516.07,99.2v1.09s3.9.01,3.9.01v-1.09s-3.9-.01-3.9-.01ZM523.37,99.2v1.08s3.91,0,3.91,0v-1.08s-3.91,0-3.91,0ZM530.72,99.2v1.09h3.86v-1.09h-3.86ZM538.02,99.2v1.09h3.87v-1.09h-3.87ZM545.3,99.2v1.09h3.88v-1.09h-3.88ZM333.5,102.96v-1.58s-3.87-.04-3.87-.04l.04,1.69,3.83-.07ZM336.96,101.35v1.67h3.86v-1.67h-3.86ZM344.25,101.35v1.67h3.87v-1.67h-3.87ZM355.4,102.97l-.05-1.62-3.79.02.05,1.59h3.79ZM362.76,102.99l-.02-1.65-3.86.03.02,1.61h3.86ZM370.07,102.96l-.02-1.62-3.91.02.08,1.62,3.85-.02ZM377.38,102.97l-.04-1.61h-3.79s.01,1.62.01,1.62h3.81ZM380.84,101.35v1.63h3.88v-1.63h-3.88ZM497.99,103v-1.65s-3.77.01-3.77.01v1.63s3.77.01,3.77.01ZM505.33,102.96l-.04-1.61-3.79.02v1.62s3.83-.03,3.83-.03ZM512.59,102.96v-1.6s-3.78.02-3.78.02l.02,1.6,3.76-.02ZM516.06,101.35v1.67h3.92v-1.67h-3.92ZM527.28,101.35h-3.91v1.67h3.91v-1.67ZM534.56,102.98l-.05-1.62h-3.79s.05,1.61.05,1.61h3.8ZM538.02,101.35v1.67h3.89v-1.67h-3.89ZM549.16,102.98v-1.62s-3.83,0-3.83,0l.06,1.61h3.77ZM333.53,110.92l-.02-6.85h-3.9s.03,6.87.03,6.87h3.89ZM340.82,110.95l-.02-6.92-3.85.07.02,6.82,3.84.03ZM348.12,104.04h-3.87s0,6.92,0,6.92h3.87s0-6.92,0-6.92ZM351.56,104.05v6.91h3.88v-6.91h-3.88ZM362.78,110.95v-6.9s-3.92.02-3.92.02v6.87s3.92.01,3.92.01ZM370.06,110.92l.03-6.84-3.9-.03v6.89s3.87-.02,3.87-.02ZM377.4,104.05h-3.88v6.91h3.88v-6.91ZM384.68,110.92v-6.84s-3.85-.01-3.85-.01l.02,6.88,3.83-.02ZM498.01,110.89l.02-6.81-3.85-.03v6.88s3.83-.04,3.83-.04ZM505.33,104.05h-3.88s0,6.92,0,6.92h3.88s0-6.92,0-6.92ZM512.62,104.05h-3.84v6.91h3.84v-6.91ZM519.97,110.94v-6.89s-3.93.03-3.93.03l.04,6.85h3.89ZM527.28,104.05h-3.91v6.92h3.91v-6.92ZM534.58,110.93v-6.86s-3.87,0-3.87,0l.02,6.87h3.84ZM541.88,110.93v-6.86s-3.86,0-3.86,0v6.86s3.86,0,3.86,0ZM549.19,104.05h-3.84v6.91h3.84v-6.91ZM407.49,104.47c-.31,0-.91.02-1.15.04-.17.01-.21.68-.05.73.28.09,1.2.39,1.45-.13.06-.12-.11-.65-.25-.65ZM410.75,104.45v.95s1.49,0,1.49,0v-.95s-1.49,0-1.49,0ZM421.87,104.46l-1.15.05c-.16,0-.22.69-.06.73.07.02,1.31.48,1.47-.13.04-.14-.14-.67-.27-.66ZM433.15,104.53c-.32-.09-.98-.1-1.23,0-.15.06-.19.49-.11.63.15.28.9.39,1.47.01.13-.09.03-.61-.13-.65ZM446.9,104.47l-1.16.02c-.18,0-.26.66-.11.76.11.07.48.18.62.16l.76-.13c.17-.03.05-.8-.12-.8ZM456.75,104.44v.96s1.48,0,1.48,0v-.96s-1.48,0-1.48,0ZM466.62,104.45v.96h1.48v-.96h-1.48ZM471.12,104.44v.96h1.49v-.96h-1.49ZM408.12,106.45h-2.31s0,4.51,0,4.51h2.31s0-4.51,0-4.51ZM410.34,106.45l-.02,4.5h2.34s.02-4.49.02-4.49h-2.34ZM420.16,106.45v4.51s2.38,0,2.38,0v-4.51s-2.38,0-2.38,0ZM433.71,110.93l-.02-4.45h-2.3s.01,4.45.01,4.45h2.31ZM447.48,110.93v-4.44s-2.39.03-2.39.03v4.37s2.39.03,2.39.03ZM456.33,106.45v4.51s2.32,0,2.32,0v-4.51s-2.32,0-2.32,0ZM468.51,106.46h-2.35v4.5h2.35v-4.5ZM473.05,106.46h-2.37v4.51h2.37v-4.51Z"></path></g><path d="M450.66,42.12c-7.22-1.78-14.99-.41-22.45-.02-2.94.16-13.04,3.95-13.4,2.99-.11-.3.18-.71.53-.81.86-.24.35-.71.68-2.24.04-.18.82-.17.85.02l.2,1.61c.16.09,1.29-.05,1.32-.39l.11-1.74c.01-.21.28-.55.46-.59s.56.37.57.57l.06,1.58,1.46-.46c.62-4.45.7-1.53-.06-5.84-.23-1.28.28-2.45.52-3.7.48-2.54-.59-6.05.5-6.31.72-.17.56.72.75,1.49.7-2.61,2.83-4.08,5.01-5.65,1.82-1.32,3.35-2.93,5.73-3.42l-.03-2.52c-.01-1.02.31-1.87,1.39-2.21l.06-3.14c0-.48.95-1.13,1.13-1.61s.05-1.64-.26-2.07c-.53-.73-.96-1.61-.8-2.68l-.91-.62c-.62-.88,1.22-3.64,1.44-3.56l1.74.64.23-1.44h3.91s.2,1.65.2,1.65c.37-.34,1.33-.84,1.82-.85.22,0,.42.68.53.86.4.61,1.38,1.89.66,2.69-1.66,1.83.11,1.28-1.72,3.45l-.2,1.95c.37.44,1.18,1.12,1.19,1.61l.06,3.11c.83.3,1.41.95,1.42,1.8l.02,2.99c2.35.46,3.85,2.06,5.62,3.35,2.14,1.56,4.2,2.95,5.01,5.48l.22-1.08c.03-.17.59-.3.71-.16.98,1.18-.26,3.76.39,6.42.31,1.27.71,2.46.44,3.76-.92,4.49-.36,1.68-.08,5.63l1.5.44.07-1.55c0-.2.37-.59.56-.58.64.06.41.89.56,2.31.04.33,1.19.49,1.3.39l.29-1.62c.03-.17.68-.24.74-.07s.16.63.17.83l.05,1.14c.01.23.53.34.8.47.14.07.32.5.27.65s-.39.24-.62.19l-12.75-3.14ZM440.29,2.14c.12,0,.28-.82.07-.86l-.97-.19c-.25-.05-.86.1-.98.3s.1.82.24.77c.61-.17,1.04-.15,1.65-.02ZM436.02,3.76l1.12-.2c-.26-.47-.55-.89-.98-1.46l-.97,1.07c-.1.11.05.73.18.7l.65-.12ZM443.7,3.92c-.03-1.19-.43-1.31-1.12-1.71l-.89,1.27,2.01.44ZM440.74,5.62c.39-.43.17-1.58-.08-2.15-.88.5-1.59.58-2.51.02-.22.6-.43,1.77-.05,2.18.74.8,1.87.81,2.64-.05ZM437.9,7.2c-.53-.66-.88-1.03-1.01-1.45l-.31-1.04c-.5.37-.62.76-.49,1.32.09.38.6.68,1.05.83l.75.34ZM441.27,6.93c.84-.2,1.34-.36,1.46-.85.15-.57.02-1.2-.54-1.25-.23.88-.48,1.52-.93,2.11ZM439.88,7.58l-1-.04c.04.85.1,1.44.44,2.23.75-.68.62-1.39.56-2.18ZM441.01,9.44c.87.11.88-.85.7-1.11-.16-.23-.44-.4-.75-.6l.05,1.71ZM437.89,8.31c0-.22-.47-.37-.62-.24-.25.22-.24,1.06.07,1.3.11.08.57,0,.56-.13v-.92ZM440.98,13.92l-.11-3.14-2.94.06-.04,3.09h3.09ZM436.84,13.88l-.07-2.68c-.38-.12-.85.37-.84.76l.08,2.06c0,.16.83.02.82-.14ZM442.82,14.12l.04-2.2c0-.37-.39-.78-.81-.74l-.06,2.69c0,.18.68.28.83.25ZM444.27,18.84l-.04-3.04c-3.07-1.12-6.41-1.03-9.6-.07l-.03,3.12c3.36-.91,6.41-.82,9.67,0ZM446.09,20.74c-4.23-1.98-9.14-1.93-13.37,0,4.53-.83,8.84-.88,13.37,0ZM441,22.18c.42,1.76,2.11,1.13,2.43,2.63.13.63-.16,1.44-.53,2.07.63.02,1.49.22,1.73.8.65,1.58-1.15,2.05-.62,2.68.12.15.59.41.81.45,3.16.52,7.53,1.14,10.26,2.86,2.08-6.79-4.07-10.74-9.81-11.92-3.99-.82-8.08-.8-12.05.08-5.64,1.24-11.47,5.22-9.45,11.81,3.04-1.75,6.8-2.25,10.26-2.84.26-.04.78-.32.86-.55.23-.65-1.37-1.32-.59-2.72.26-.47,1.09-.64,1.64-.68-.38-.7-.69-1.41-.53-2.08.37-1.5,1.98-.78,2.44-2.6.17-.66,1.01-.46,1.59-.44.54.02,1.41-.25,1.57.44ZM440.14,23.97c1.16.64,1.45,1.55,1.03,2.72l.69-.51c.22-.16.55-.71.51-.98-.15-.94-1.86-.7-2.37-2.12l-1.17-.03c-.37,1.39-2.23,1.22-2.38,2.15-.04.26.3.77.5.94l.74.65c-.52-1.3-.11-2.25,1.03-2.87.47-.25.88-.25,1.41.04ZM440.27,28.89c-1-1.35-.7-2.04-.05-3.13.17-.29-.58-.77-.91-.73-2.11.23,1.21,1.72-.78,3.85.62.06,1.23.07,1.74.01ZM443.03,30.47c.97-.59-8.84-.57-7.05.1,2.41.05,4.6.1,7.05-.1ZM437.61,31.66h-1.04s0,2.65,0,2.65h1.04s0-2.65,0-2.65ZM438.69,31.65v2.51s1.47,0,1.47,0v-2.51s-1.47,0-1.47,0ZM441.25,31.69v2.6h1.03v-2.6h-1.03ZM444.4,31.82h-1.03s0,2.71,0,2.71h1.03s0-2.71,0-2.71ZM435.51,34.46v-2.55c-.23-.09-1.02-.05-1.02.22l-.03,2.33h1.05ZM433.4,34.68l-.04-2.59c-.28.01-.92.13-1.08.27v2.56s1.12-.24,1.12-.24ZM446.58,34.86v-2.63s-1.12-.13-1.12-.13l.02,2.55c.23.12.86.22,1.09.21ZM430.07,35.24c.21.11,1.09-.08,1.09-.36l-.02-2.41c-.36.02-.89.14-1.11.3l.04,2.47ZM448.76,35.12l-.02-2.29c0-.28-.85-.45-1.03-.29v2.41c0,.26,1.05.45,1.05.18ZM450.83,35.43l-.06-2.18c0-.22-.76-.37-.91-.29l-.05,2.16c0,.2.28.55.42.65.1.08.6-.19.6-.34ZM428.98,35.33l-.02-2.41-.96.29.02,2.58c.36,0,.97-.22.96-.46ZM425.98,36.43l.94-.28-.04-2.58c-.09-.1-.87.14-.88.37l-.02,2.48ZM452.84,36.4l-.04-2.47c0-.24-.79-.49-.87-.35l-.07,2.47.97.35ZM423.03,39.52c3.78-2.08,7.51-3.2,11.69-3.38.24-.01.53-.28.58-.54-2.63.37-5.11.78-7.65,1.49-.43.12-5.58,1.73-4.61,2.44ZM447.15,36.15l-3.68-.54c.28.46.6.51,1.07.54,4.08.25,7.81,1.43,11.42,3.45.31-1.49-7.63-3.27-8.8-3.44ZM442.78,36.84l-.32-.43h-6.12s-.39.43-.39.43h6.83ZM440.05,40.78h2.14s-.03-1.83-.03-1.83c0-.27.3-.72.53-.72.18,0,.55.37.55.59l.03,1.94h2.09s.03-1.96.03-1.96c0-.22.36-.6.54-.57s.5.37.5.58l.03,1.94h2.13s.03-1.94.03-1.94c0-.21.36-.61.54-.59s.49.39.5.59l.07,1.9,1.49.17.15-2.2c-1.97-.69-4.15-1.17-6.34-1.42l-.7.71-9.26.03c-.36,0-.98-.45-1.3-.63-1.96-.02-4.46.67-6.28,1.32l.15,2.18,1.5-.14.06-1.92c0-.19.29-.52.46-.56s.57.37.57.56l.02,1.97h2.12s.04-1.81.04-1.81c0-.23.24-.67.45-.7,1.03-.15.5,1.91.68,2.51h2.04s0-1.8,0-1.8c0-.24.3-.68.52-.71s.59.46.59.71v1.81s2.13.01,2.13.01l.03-2c0-.24.41-.68.62-.62.18.06.53.46.54.65l.04,1.97ZM426.53,41.22l-.1-2.15-1.52.76.02,1.8,1.61-.41ZM453.9,41.64l-.02-1.9-1.48-.63-.05,2.1,1.54.43ZM422.49,42.32c.56-.17,1.24-.23,1.29-.51.05-.33.01-.92-.05-1.35l-1.33.8c-.26.16-.17,1.14.09,1.05ZM456.52,41.39c-.29-.31-1.1-.79-1.46-.88-.08.53-.14,1.1-.02,1.3s.53.33.86.45h.6c.11,0,.09-.79.02-.86Z"></path></g><g><path d="M49.56,112.61h-10.91l-24.69-37.31v37.31H3.05v-54.45h10.91l24.69,37.39v-37.39h10.91v54.45Z"></path><path d="M60.11,79.27c1.74-3.38,4.1-5.97,7.09-7.79,2.99-1.82,6.32-2.73,10.01-2.73,3.22,0,6.04.65,8.45,1.95,2.42,1.3,4.35,2.93,5.8,4.91v-6.15h10.98v43.16h-10.98v-6.31c-1.4,2.03-3.34,3.7-5.8,5.02-2.47,1.32-5.31,1.99-8.53,1.99-3.64,0-6.95-.93-9.93-2.8-2.99-1.87-5.35-4.5-7.09-7.91-1.74-3.4-2.61-7.31-2.61-11.72s.87-8.23,2.61-11.61ZM89.91,84.21c-1.04-1.89-2.44-3.35-4.21-4.36-1.77-1.01-3.66-1.52-5.69-1.52s-3.9.49-5.61,1.48c-1.71.99-3.1,2.43-4.17,4.32-1.06,1.9-1.6,4.14-1.6,6.74s.53,4.87,1.6,6.82c1.06,1.95,2.47,3.44,4.21,4.48,1.74,1.04,3.6,1.56,5.57,1.56s3.92-.51,5.69-1.52c1.77-1.01,3.17-2.47,4.21-4.36,1.04-1.9,1.56-4.17,1.56-6.82s-.52-4.92-1.56-6.82Z"></path><path d="M179.53,73.7c3.25,3.25,4.87,7.78,4.87,13.59v25.32h-10.91v-23.84c0-3.38-.86-5.96-2.57-7.75-1.71-1.79-4.05-2.69-7.01-2.69s-5.31.9-7.05,2.69c-1.74,1.79-2.61,4.38-2.61,7.75v23.84h-10.91v-23.84c0-3.38-.86-5.96-2.57-7.75-1.71-1.79-4.05-2.69-7.01-2.69s-5.39.9-7.13,2.69c-1.74,1.79-2.61,4.38-2.61,7.75v23.84h-10.91v-43.16h10.91v5.22c1.4-1.82,3.21-3.25,5.41-4.28,2.21-1.04,4.64-1.56,7.28-1.56,3.38,0,6.39.71,9.04,2.14,2.65,1.43,4.7,3.47,6.15,6.12,1.4-2.49,3.44-4.49,6.12-6,2.67-1.51,5.57-2.26,8.69-2.26,5.3,0,9.57,1.62,12.81,4.87Z"></path><path d="M261.17,73.7c3.25,3.25,4.87,7.78,4.87,13.59v25.32h-10.91v-23.84c0-3.38-.86-5.96-2.57-7.75-1.71-1.79-4.05-2.69-7.01-2.69s-5.31.9-7.05,2.69c-1.74,1.79-2.61,4.38-2.61,7.75v23.84h-10.91v-23.84c0-3.38-.86-5.96-2.57-7.75-1.71-1.79-4.05-2.69-7.01-2.69s-5.39.9-7.13,2.69c-1.74,1.79-2.61,4.38-2.61,7.75v23.84h-10.91v-43.16h10.91v5.22c1.4-1.82,3.21-3.25,5.41-4.28,2.21-1.04,4.64-1.56,7.28-1.56,3.38,0,6.39.71,9.04,2.14,2.65,1.43,4.7,3.47,6.15,6.12,1.4-2.49,3.44-4.49,6.12-6,2.67-1.51,5.57-2.26,8.69-2.26,5.3,0,9.57,1.62,12.81,4.87Z"></path><path d="M276.21,79.27c1.74-3.38,4.1-5.97,7.09-7.79,2.99-1.82,6.32-2.73,10.01-2.73,3.22,0,6.04.65,8.45,1.95,2.42,1.3,4.35,2.93,5.8,4.91v-6.15h10.98v43.16h-10.98v-6.31c-1.4,2.03-3.34,3.7-5.8,5.02-2.47,1.32-5.31,1.99-8.53,1.99-3.64,0-6.95-.93-9.93-2.8-2.99-1.87-5.35-4.5-7.09-7.91-1.74-3.4-2.61-7.31-2.61-11.72s.87-8.23,2.61-11.61ZM306,84.21c-1.04-1.89-2.44-3.35-4.21-4.36-1.77-1.01-3.66-1.52-5.69-1.52s-3.9.49-5.61,1.48c-1.71.99-3.1,2.43-4.17,4.32-1.06,1.9-1.6,4.14-1.6,6.74s.53,4.87,1.6,6.82c1.06,1.95,2.47,3.44,4.21,4.48,1.74,1.04,3.6,1.56,5.57,1.56s3.92-.51,5.69-1.52c1.77-1.01,3.17-2.47,4.21-4.36,1.04-1.9,1.56-4.17,1.56-6.82s-.52-4.92-1.56-6.82Z"></path></g><g><path d="M338.62,212.49v50.19h-5.09v-40.08l-17.89,40.08h-3.71l-17.89-39.93v39.93h-5.09v-50.19h5.38l19.42,43.5,19.42-43.5h5.45Z"></path><path d="M385.97,244.79h-32.95c.15,3.01.87,5.58,2.18,7.71,1.31,2.13,3.03,3.75,5.16,4.84,2.13,1.09,4.46,1.64,6.98,1.64,3.3,0,6.07-.8,8.33-2.4,2.26-1.6,3.75-3.76,4.47-6.47h5.38c-.97,3.88-3.04,7.04-6.22,9.49-3.18,2.45-7.16,3.67-11.96,3.67-3.73,0-7.08-.84-10.04-2.51-2.96-1.67-5.27-4.05-6.95-7.13-1.67-3.08-2.51-6.68-2.51-10.8s.82-7.73,2.47-10.84c1.65-3.1,3.95-5.48,6.91-7.13,2.96-1.65,6.33-2.47,10.11-2.47s7.09.82,9.93,2.47c2.84,1.65,5.02,3.87,6.55,6.66,1.53,2.79,2.29,5.88,2.29,9.27,0,1.75-.05,3.08-.15,4ZM379.17,233.07c-1.24-2.08-2.92-3.66-5.05-4.73-2.13-1.07-4.46-1.6-6.98-1.6-3.78,0-7.01,1.21-9.67,3.64-2.67,2.43-4.15,5.84-4.44,10.26h27.93c.05-2.96-.55-5.48-1.78-7.56Z"></path><path d="M431.21,244.79h-32.95c.15,3.01.87,5.58,2.18,7.71,1.31,2.13,3.03,3.75,5.16,4.84,2.13,1.09,4.46,1.64,6.98,1.64,3.3,0,6.07-.8,8.33-2.4,2.26-1.6,3.75-3.76,4.47-6.47h5.38c-.97,3.88-3.04,7.04-6.22,9.49-3.18,2.45-7.16,3.67-11.96,3.67-3.73,0-7.08-.84-10.04-2.51-2.96-1.67-5.27-4.05-6.95-7.13-1.67-3.08-2.51-6.68-2.51-10.8s.82-7.73,2.47-10.84c1.65-3.1,3.95-5.48,6.91-7.13,2.96-1.65,6.33-2.47,10.11-2.47s7.09.82,9.93,2.47c2.84,1.65,5.02,3.87,6.55,6.66,1.53,2.79,2.29,5.88,2.29,9.27,0,1.75-.05,3.08-.15,4ZM424.41,233.07c-1.24-2.08-2.92-3.66-5.05-4.73-2.13-1.07-4.46-1.6-6.98-1.6-3.78,0-7.01,1.21-9.67,3.64-2.67,2.43-4.15,5.84-4.44,10.26h27.93c.05-2.96-.55-5.48-1.78-7.56Z"></path><path d="M447.28,227.26v24.66c0,2.43.46,4.1,1.38,5.02.92.92,2.55,1.38,4.87,1.38h4.65v4.36h-5.46c-3.59,0-6.26-.84-8-2.51-1.75-1.67-2.62-4.42-2.62-8.26v-24.66h-5.53v-4.29h5.53v-9.96h5.16v9.96h10.91v4.29h-10.91Z"></path><path d="M500.96,222.96v39.71h-5.09v-6.98c-1.16,2.47-2.96,4.36-5.38,5.67-2.43,1.31-5.14,1.96-8.15,1.96-4.75,0-8.63-1.47-11.64-4.4-3.01-2.93-4.51-7.19-4.51-12.77v-23.2h5.02v22.62c0,4.32,1.08,7.61,3.24,9.89,2.16,2.28,5.1,3.42,8.84,3.42s6.88-1.21,9.16-3.64c2.28-2.42,3.42-5.99,3.42-10.69v-21.6h5.09Z"></path><path d="M523.62,225.04c2.74-1.77,6-2.65,9.78-2.65s6.82.84,9.71,2.51c2.88,1.67,5.14,4.05,6.76,7.13,1.62,3.08,2.44,6.66,2.44,10.73s-.81,7.66-2.44,10.76c-1.63,3.1-3.88,5.5-6.76,7.2-2.89,1.7-6.12,2.55-9.71,2.55s-6.98-.88-9.75-2.66c-2.76-1.77-4.78-3.99-6.04-6.66v27.49h-5.02v-58.48h5.02v8.73c1.26-2.67,3.26-4.88,6-6.66ZM545.22,234.2c-1.29-2.4-3.04-4.23-5.27-5.49-2.23-1.26-4.75-1.89-7.56-1.89s-5.2.65-7.46,1.96c-2.26,1.31-4.04,3.18-5.35,5.6-1.31,2.43-1.96,5.24-1.96,8.44s.65,6.01,1.96,8.44c1.31,2.43,3.09,4.29,5.35,5.6,2.25,1.31,4.74,1.96,7.46,1.96s5.33-.64,7.56-1.93c2.23-1.28,3.99-3.15,5.27-5.6,1.28-2.45,1.93-5.3,1.93-8.55s-.64-6.15-1.93-8.55Z"></path></g><g><path class="cls-1" d="M53.01,162.68c2.72,3.44,4.09,7.38,4.09,11.83,0,4.02-.99,7.55-2.96,10.59-1.97,3.05-4.82,5.43-8.55,7.15-3.73,1.72-8.14,2.58-13.23,2.58H0v-75.05h30.97c5.09,0,9.48.82,13.17,2.47,3.69,1.65,6.49,3.94,8.39,6.88,1.9,2.94,2.85,6.27,2.85,10,0,4.37-1.17,8.03-3.49,10.97-2.33,2.94-5.43,5.02-9.3,6.24,4.23.79,7.7,2.9,10.43,6.34ZM15.05,150.75h13.76c3.58,0,6.34-.81,8.28-2.42,1.94-1.61,2.9-3.92,2.9-6.94s-.97-5.34-2.9-6.99c-1.94-1.65-4.7-2.47-8.28-2.47h-13.76v18.82ZM38.76,179.99c2.04-1.72,3.06-4.16,3.06-7.31s-1.08-5.75-3.23-7.58c-2.15-1.83-5.05-2.74-8.71-2.74h-14.84v20.21h15.16c3.66,0,6.51-.86,8.55-2.58Z"></path><path class="cls-1" d="M124.08,169.56h-43.55c.36,4.3,1.86,7.67,4.52,10.11,2.65,2.44,5.91,3.66,9.78,3.66,5.59,0,9.57-2.4,11.94-7.2h16.24c-1.72,5.74-5.02,10.45-9.89,14.14-4.88,3.69-10.86,5.54-17.96,5.54-5.74,0-10.88-1.27-15.43-3.82-4.55-2.54-8.1-6.15-10.65-10.81-2.55-4.66-3.82-10.03-3.82-16.13s1.25-11.58,3.76-16.24c2.51-4.66,6.02-8.24,10.54-10.75,4.52-2.51,9.71-3.76,15.59-3.76s10.73,1.22,15.21,3.66c4.48,2.44,7.96,5.9,10.43,10.38,2.47,4.48,3.71,9.62,3.71,15.43,0,2.15-.14,4.09-.43,5.81ZM108.92,159.46c-.07-3.87-1.47-6.97-4.19-9.3-2.72-2.33-6.06-3.49-10-3.49-3.73,0-6.86,1.13-9.41,3.39-2.54,2.26-4.1,5.39-4.68,9.41h28.28Z"></path><path d="M185.69,141.12c4.37,4.48,6.56,10.74,6.56,18.76v34.95h-15.05v-32.9c0-4.73-1.18-8.37-3.55-10.91-2.37-2.54-5.59-3.82-9.68-3.82s-7.44,1.27-9.84,3.82c-2.4,2.55-3.6,6.18-3.6,10.91v32.9h-15.05v-59.57h15.05v7.42c2.01-2.58,4.57-4.61,7.69-6.08,3.12-1.47,6.54-2.2,10.27-2.2,7.1,0,12.83,2.24,17.2,6.72Z"></path><path d="M241.6,136.93c3.37,1.76,6.02,4.03,7.96,6.83v-8.49h15.16v60c0,5.52-1.11,10.45-3.33,14.78-2.22,4.34-5.56,7.78-10,10.32-4.45,2.54-9.82,3.82-16.13,3.82-8.46,0-15.39-1.97-20.81-5.91-5.41-3.94-8.48-9.32-9.19-16.13h14.95c.79,2.72,2.49,4.89,5.11,6.51,2.62,1.61,5.79,2.42,9.52,2.42,4.37,0,7.92-1.31,10.65-3.92,2.72-2.62,4.09-6.58,4.09-11.88v-9.25c-1.94,2.8-4.61,5.13-8.01,6.99-3.41,1.86-7.3,2.8-11.67,2.8-5.02,0-9.61-1.29-13.76-3.87-4.16-2.58-7.44-6.22-9.84-10.91-2.4-4.69-3.6-10.09-3.6-16.18s1.2-11.36,3.6-16.02c2.4-4.66,5.66-8.24,9.78-10.75,4.12-2.51,8.73-3.76,13.82-3.76,4.44,0,8.35.88,11.72,2.63ZM247.41,155.64c-1.43-2.62-3.37-4.62-5.81-6.02-2.44-1.4-5.05-2.1-7.85-2.1s-5.38.68-7.74,2.04c-2.37,1.36-4.28,3.35-5.75,5.97-1.47,2.62-2.2,5.72-2.2,9.3s.73,6.72,2.2,9.41c1.47,2.69,3.4,4.75,5.81,6.18,2.4,1.43,4.96,2.15,7.69,2.15s5.41-.7,7.85-2.1c2.44-1.4,4.37-3.4,5.81-6.02,1.43-2.62,2.15-5.75,2.15-9.41s-.72-6.79-2.15-9.41Z"></path><path d="M279.18,148.81c2.4-4.66,5.66-8.24,9.78-10.75,4.12-2.51,8.73-3.76,13.82-3.76,4.44,0,8.33.9,11.67,2.69,3.33,1.79,6,4.05,8.01,6.77v-8.49h15.16v59.57h-15.16v-8.71c-1.94,2.8-4.61,5.11-8.01,6.94-3.41,1.83-7.33,2.74-11.77,2.74-5.02,0-9.59-1.29-13.71-3.87-4.12-2.58-7.38-6.22-9.78-10.91-2.4-4.69-3.6-10.09-3.6-16.18s1.2-11.36,3.6-16.02ZM320.31,155.64c-1.43-2.62-3.37-4.62-5.81-6.02-2.44-1.4-5.05-2.1-7.85-2.1s-5.38.68-7.74,2.04c-2.37,1.36-4.28,3.35-5.75,5.97-1.47,2.62-2.2,5.72-2.2,9.3s.73,6.72,2.2,9.41c1.47,2.69,3.4,4.75,5.81,6.18,2.4,1.43,4.96,2.15,7.69,2.15s5.41-.7,7.85-2.1c2.44-1.4,4.37-3.4,5.81-6.02,1.43-2.62,2.15-5.75,2.15-9.41s-.72-6.79-2.15-9.41Z"></path><path d="M367.4,115.26v79.57h-15.05v-79.57h15.05Z"></path><path d="M438.48,135.26v59.57h-15.16v-7.53c-1.94,2.58-4.46,4.61-7.58,6.07-3.12,1.47-6.51,2.2-10.16,2.2-4.66,0-8.78-.98-12.37-2.96-3.59-1.97-6.4-4.87-8.44-8.71-2.04-3.83-3.06-8.4-3.06-13.71v-34.94h15.05v32.79c0,4.73,1.18,8.37,3.55,10.91,2.37,2.55,5.59,3.82,9.68,3.82s7.42-1.27,9.78-3.82c2.37-2.54,3.55-6.18,3.55-10.91v-32.79h15.16Z"></path><path d="M475.95,137.09c3.12-1.79,6.68-2.69,10.7-2.69v15.81h-3.98c-4.73,0-8.3,1.11-10.7,3.33-2.4,2.22-3.6,6.09-3.6,11.61v29.68h-15.05v-59.57h15.05v9.25c1.94-3.15,4.46-5.63,7.58-7.42Z"></path><path class="cls-1" d="M552.99,135.26v59.57h-15.16v-7.53c-1.94,2.58-4.46,4.61-7.58,6.07-3.12,1.47-6.51,2.2-10.16,2.2-4.66,0-8.78-.98-12.37-2.96-3.59-1.97-6.4-4.87-8.44-8.71-2.04-3.83-3.06-8.4-3.06-13.71v-34.94h15.05v32.79c0,4.73,1.18,8.37,3.55,10.91,2.37,2.55,5.59,3.82,9.68,3.82s7.42-1.27,9.78-3.82c2.37-2.54,3.55-6.18,3.55-10.91v-32.79h15.16Z"></path></g></g></g></svg> 